<?xml version="1.0" encoding="UTF-8" standalone="no"?>
<!DOCTYPE svg PUBLIC "-//W3C//DTD SVG 1.1//EN"
 "http://www.w3.org/Graphics/SVG/1.1/DTD/svg11.dtd">
<!-- Generated by graphviz version 2.47.0 (20210316.0004)
 -->
<!-- Title: dependencies Pages: 1 -->
<svg width="504pt" height="211pt"
 viewBox="0.00 0.00 504.00 211.00" xmlns="http://www.w3.org/2000/svg" xmlns:xlink="http://www.w3.org/1999/xlink">
<g id="graph0" class="graph" transform="scale(1 1) rotate(0) translate(4 207)">
<title>dependencies</title>
<polygon fill="white" stroke="transparent" points="-4,4 -4,-207 500,-207 500,4 -4,4"/>
<text text-anchor="start" x="227.01" y="-42.4" font-family="Times-12" font-weight="bold" font-size="14.00">Legend</text>
<polygon fill="#ffffb3" stroke="transparent" points="14,-10 14,-30 34,-30 34,-10 14,-10"/>
<text text-anchor="start" x="37.63" y="-15.4" font-family="Times-12" font-size="14.00"> &#160;Declarations</text>
<polygon fill="#8dd3c7" stroke="transparent" points="127,-10 127,-30 147,-30 147,-10 127,-10"/>
<text text-anchor="start" x="150.73" y="-15.4" font-family="Times-12" font-size="14.00"> &#160;Module</text>
<polygon fill="#80b1d3" stroke="transparent" points="213,-10 213,-30 233,-30 233,-10 213,-10"/>
<text text-anchor="start" x="236.78" y="-15.4" font-family="Times-12" font-size="14.00"> &#160;Bootstrap</text>
<polygon fill="#fdb462" stroke="transparent" points="310,-10 310,-30 330,-30 330,-10 310,-10"/>
<text text-anchor="start" x="333.67" y="-15.4" font-family="Times-12" font-size="14.00"> &#160;Providers</text>
<polygon fill="#fb8072" stroke="transparent" points="406,-10 406,-30 426,-30 426,-10 406,-10"/>
<text text-anchor="start" x="429.73" y="-15.4" font-family="Times-12" font-size="14.00"> &#160;Exports</text>
<g id="clust1" class="cluster">
<title>cluster_ExerciseGatewayModule</title>
<polygon fill="none" stroke="black" stroke-dasharray="1,5" points="69,-70 69,-195 427,-195 427,-70 69,-70"/>
</g>
<g id="clust6" class="cluster">
<title>cluster_ExerciseGatewayModule_providers</title>
<polygon fill="none" stroke="black" points="187,-78 187,-130 419,-130 419,-78 187,-78"/>
</g>
<g id="clust3" class="cluster">
<title>cluster_ExerciseGatewayModule_imports</title>
<polygon fill="none" stroke="black" points="77,-78 77,-130 179,-130 179,-78 77,-78"/>
</g>
<!-- RmqModule -->
<g id="node1" class="node">
<title>RmqModule</title>
<polygon fill="#8dd3c7" stroke="black" points="171.28,-122 168.28,-126 147.28,-126 144.28,-122 84.72,-122 84.72,-86 171.28,-86 171.28,-122"/>
<text text-anchor="middle" x="128" y="-99.8" font-family="Times,serif" font-size="14.00">RmqModule</text>
</g>
<!-- ExerciseGatewayModule -->
<g id="node2" class="node">
<title>ExerciseGatewayModule</title>
<polygon fill="#8dd3c7" stroke="black" points="307.99,-187 304.99,-191 283.99,-191 280.99,-187 150.01,-187 150.01,-151 307.99,-151 307.99,-187"/>
<text text-anchor="middle" x="229" y="-164.8" font-family="Times,serif" font-size="14.00">ExerciseGatewayModule</text>
</g>
<!-- RmqModule&#45;&gt;ExerciseGatewayModule -->
<g id="edge1" class="edge">
<title>RmqModule&#45;&gt;ExerciseGatewayModule</title>
<path fill="none" stroke="black" d="M160.82,-122.11C160.82,-122.11 160.82,-140.99 160.82,-140.99"/>
<polygon fill="black" stroke="black" points="157.32,-140.99 160.82,-150.99 164.32,-140.99 157.32,-140.99"/>
</g>
<!-- ExerciseGatewayService -->
<g id="node3" class="node">
<title>ExerciseGatewayService</title>
<ellipse fill="#fdb462" stroke="black" cx="303" cy="-104" rx="107.6" ry="18"/>
<text text-anchor="middle" x="303" y="-99.8" font-family="Times,serif" font-size="14.00">ExerciseGatewayService</text>
</g>
<!-- ExerciseGatewayService&#45;&gt;ExerciseGatewayModule -->
<g id="edge2" class="edge">
<title>ExerciseGatewayService&#45;&gt;ExerciseGatewayModule</title>
<path fill="none" stroke="black" d="M251.6,-120.07C251.6,-120.07 251.6,-140.82 251.6,-140.82"/>
<polygon fill="black" stroke="black" points="248.1,-140.82 251.6,-150.82 255.1,-140.82 248.1,-140.82"/>
</g>
</g>
</svg>
