<?xml version="1.0" encoding="UTF-8" standalone="no"?>
<!DOCTYPE svg PUBLIC "-//W3C//DTD SVG 1.1//EN"
 "http://www.w3.org/Graphics/SVG/1.1/DTD/svg11.dtd">
<!-- Generated by graphviz version 2.47.0 (20210316.0004)
 -->
<!-- Title: dependencies Pages: 1 -->
<svg width="504pt" height="284pt"
 viewBox="0.00 0.00 504.00 284.00" xmlns="http://www.w3.org/2000/svg" xmlns:xlink="http://www.w3.org/1999/xlink">
<g id="graph0" class="graph" transform="scale(1 1) rotate(0) translate(4 280)">
<title>dependencies</title>
<polygon fill="white" stroke="transparent" points="-4,4 -4,-280 500,-280 500,4 -4,4"/>
<text text-anchor="start" x="227.01" y="-42.4" font-family="Times-12" font-weight="bold" font-size="14.00">Legend</text>
<polygon fill="#ffffb3" stroke="transparent" points="14,-10 14,-30 34,-30 34,-10 14,-10"/>
<text text-anchor="start" x="37.63" y="-15.4" font-family="Times-12" font-size="14.00"> &#160;Declarations</text>
<polygon fill="#8dd3c7" stroke="transparent" points="127,-10 127,-30 147,-30 147,-10 127,-10"/>
<text text-anchor="start" x="150.73" y="-15.4" font-family="Times-12" font-size="14.00"> &#160;Module</text>
<polygon fill="#80b1d3" stroke="transparent" points="213,-10 213,-30 233,-30 233,-10 213,-10"/>
<text text-anchor="start" x="236.78" y="-15.4" font-family="Times-12" font-size="14.00"> &#160;Bootstrap</text>
<polygon fill="#fdb462" stroke="transparent" points="310,-10 310,-30 330,-30 330,-10 310,-10"/>
<text text-anchor="start" x="333.67" y="-15.4" font-family="Times-12" font-size="14.00"> &#160;Providers</text>
<polygon fill="#fb8072" stroke="transparent" points="406,-10 406,-30 426,-30 426,-10 406,-10"/>
<text text-anchor="start" x="429.73" y="-15.4" font-family="Times-12" font-size="14.00"> &#160;Exports</text>
<g id="clust1" class="cluster">
<title>cluster_MealsGatewayModule</title>
<polygon fill="none" stroke="black" stroke-dasharray="1,5" points="79,-70 79,-268 417,-268 417,-70 79,-70"/>
</g>
<g id="clust3" class="cluster">
<title>cluster_MealsGatewayModule_imports</title>
<polygon fill="none" stroke="black" points="307,-78 307,-130 409,-130 409,-78 307,-78"/>
</g>
<g id="clust6" class="cluster">
<title>cluster_MealsGatewayModule_providers</title>
<polygon fill="none" stroke="black" points="87,-78 87,-130 299,-130 299,-78 87,-78"/>
</g>
<g id="clust4" class="cluster">
<title>cluster_MealsGatewayModule_exports</title>
<polygon fill="none" stroke="black" points="212,-208 212,-260 318,-260 318,-208 212,-208"/>
</g>
<!-- RmqModule -->
<g id="node1" class="node">
<title>RmqModule</title>
<polygon fill="#8dd3c7" stroke="black" points="401.28,-122 398.28,-126 377.28,-126 374.28,-122 314.72,-122 314.72,-86 401.28,-86 401.28,-122"/>
<text text-anchor="middle" x="358" y="-99.8" font-family="Times,serif" font-size="14.00">RmqModule</text>
</g>
<!-- MealsGatewayModule -->
<g id="node2" class="node">
<title>MealsGatewayModule</title>
<polygon fill="#8dd3c7" stroke="black" points="336.51,-187 333.51,-191 312.51,-191 309.51,-187 193.49,-187 193.49,-151 336.51,-151 336.51,-187"/>
<text text-anchor="middle" x="265" y="-164.8" font-family="Times,serif" font-size="14.00">MealsGatewayModule</text>
</g>
<!-- RmqModule&#45;&gt;MealsGatewayModule -->
<g id="edge1" class="edge">
<title>RmqModule&#45;&gt;MealsGatewayModule</title>
<path fill="none" stroke="black" d="M325.68,-122.11C325.68,-122.11 325.68,-140.99 325.68,-140.99"/>
<polygon fill="black" stroke="black" points="322.18,-140.99 325.68,-150.99 329.18,-140.99 322.18,-140.99"/>
</g>
<!-- RmqModule  -->
<g id="node3" class="node">
<title>RmqModule </title>
<polygon fill="#fb8072" stroke="black" points="310.28,-252 219.72,-252 219.72,-216 310.28,-216 310.28,-252"/>
<text text-anchor="middle" x="265" y="-229.8" font-family="Times,serif" font-size="14.00">RmqModule </text>
</g>
<!-- MealsGatewayModule&#45;&gt;RmqModule  -->
<g id="edge2" class="edge">
<title>MealsGatewayModule&#45;&gt;RmqModule </title>
<path fill="none" stroke="black" stroke-dasharray="5,2" d="M265,-187.11C265,-187.11 265,-205.99 265,-205.99"/>
<polygon fill="black" stroke="black" points="261.5,-205.99 265,-215.99 268.5,-205.99 261.5,-205.99"/>
</g>
<!-- MealsGatewayService -->
<g id="node4" class="node">
<title>MealsGatewayService</title>
<ellipse fill="#fdb462" stroke="black" cx="193" cy="-104" rx="97.81" ry="18"/>
<text text-anchor="middle" x="193" y="-99.8" font-family="Times,serif" font-size="14.00">MealsGatewayService</text>
</g>
<!-- MealsGatewayService&#45;&gt;MealsGatewayModule -->
<g id="edge3" class="edge">
<title>MealsGatewayService&#45;&gt;MealsGatewayModule</title>
<path fill="none" stroke="black" d="M242.08,-119.73C242.08,-119.73 242.08,-140.65 242.08,-140.65"/>
<polygon fill="black" stroke="black" points="238.58,-140.65 242.08,-150.65 245.58,-140.65 238.58,-140.65"/>
</g>
</g>
</svg>
