<?xml version="1.0" encoding="UTF-8" standalone="no"?>
<!DOCTYPE svg PUBLIC "-//W3C//DTD SVG 1.1//EN"
 "http://www.w3.org/Graphics/SVG/1.1/DTD/svg11.dtd">
<!-- Generated by graphviz version 2.47.0 (20210316.0004)
 -->
<!-- Title: dependencies Pages: 1 -->
<svg width="1783pt" height="284pt"
 viewBox="0.00 0.00 1783.00 284.00" xmlns="http://www.w3.org/2000/svg" xmlns:xlink="http://www.w3.org/1999/xlink">
<g id="graph0" class="graph" transform="scale(1 1) rotate(0) translate(4 280)">
<title>dependencies</title>
<polygon fill="white" stroke="transparent" points="-4,4 -4,-280 1779,-280 1779,4 -4,4"/>
<text text-anchor="start" x="866.51" y="-42.4" font-family="Times-12" font-weight="bold" font-size="14.00">Legend</text>
<polygon fill="#ffffb3" stroke="transparent" points="653.5,-10 653.5,-30 673.5,-30 673.5,-10 653.5,-10"/>
<text text-anchor="start" x="677.13" y="-15.4" font-family="Times-12" font-size="14.00"> &#160;Declarations</text>
<polygon fill="#8dd3c7" stroke="transparent" points="766.5,-10 766.5,-30 786.5,-30 786.5,-10 766.5,-10"/>
<text text-anchor="start" x="790.23" y="-15.4" font-family="Times-12" font-size="14.00"> &#160;Module</text>
<polygon fill="#80b1d3" stroke="transparent" points="852.5,-10 852.5,-30 872.5,-30 872.5,-10 852.5,-10"/>
<text text-anchor="start" x="876.28" y="-15.4" font-family="Times-12" font-size="14.00"> &#160;Bootstrap</text>
<polygon fill="#fdb462" stroke="transparent" points="949.5,-10 949.5,-30 969.5,-30 969.5,-10 949.5,-10"/>
<text text-anchor="start" x="973.17" y="-15.4" font-family="Times-12" font-size="14.00"> &#160;Providers</text>
<polygon fill="#fb8072" stroke="transparent" points="1045.5,-10 1045.5,-30 1065.5,-30 1065.5,-10 1045.5,-10"/>
<text text-anchor="start" x="1069.23" y="-15.4" font-family="Times-12" font-size="14.00"> &#160;Exports</text>
<g id="clust1" class="cluster">
<title>cluster_AuthModule</title>
<polygon fill="none" stroke="black" stroke-dasharray="1,5" points="8,-70 8,-268 1767,-268 1767,-70 8,-70"/>
</g>
<g id="clust6" class="cluster">
<title>cluster_AuthModule_providers</title>
<polygon fill="none" stroke="black" points="885,-78 885,-130 1759,-130 1759,-78 885,-78"/>
</g>
<g id="clust3" class="cluster">
<title>cluster_AuthModule_imports</title>
<polygon fill="none" stroke="black" points="16,-78 16,-130 877,-130 877,-78 16,-78"/>
</g>
<g id="clust4" class="cluster">
<title>cluster_AuthModule_exports</title>
<polygon fill="none" stroke="black" points="690,-208 690,-260 955,-260 955,-208 690,-208"/>
</g>
<!-- MailModule -->
<g id="node1" class="node">
<title>MailModule</title>
<polygon fill="#8dd3c7" stroke="black" points="868.99,-122 865.99,-126 844.99,-126 841.99,-122 783.01,-122 783.01,-86 868.99,-86 868.99,-122"/>
<text text-anchor="middle" x="826" y="-99.8" font-family="Times,serif" font-size="14.00">MailModule</text>
</g>
<!-- AuthModule -->
<g id="node7" class="node">
<title>AuthModule</title>
<polygon fill="#8dd3c7" stroke="black" points="869.55,-187 866.55,-191 845.55,-191 842.55,-187 782.45,-187 782.45,-151 869.55,-151 869.55,-187"/>
<text text-anchor="middle" x="826" y="-164.8" font-family="Times,serif" font-size="14.00">AuthModule</text>
</g>
<!-- MailModule&#45;&gt;AuthModule -->
<g id="edge1" class="edge">
<title>MailModule&#45;&gt;AuthModule</title>
<path fill="none" stroke="black" d="M826,-122.11C826,-122.11 826,-140.99 826,-140.99"/>
<polygon fill="black" stroke="black" points="822.5,-140.99 826,-150.99 829.5,-140.99 822.5,-140.99"/>
</g>
<!-- MailerMicroserviceModule -->
<g id="node2" class="node">
<title>MailerMicroserviceModule</title>
<polygon fill="#8dd3c7" stroke="black" points="765.22,-122 762.22,-126 741.22,-126 738.22,-122 594.78,-122 594.78,-86 765.22,-86 765.22,-122"/>
<text text-anchor="middle" x="680" y="-99.8" font-family="Times,serif" font-size="14.00">MailerMicroserviceModule</text>
</g>
<!-- MailerMicroserviceModule&#45;&gt;AuthModule -->
<g id="edge2" class="edge">
<title>MailerMicroserviceModule&#45;&gt;AuthModule</title>
<path fill="none" stroke="black" d="M731.65,-122.24C731.65,-137.57 731.65,-157 731.65,-157 731.65,-157 772.41,-157 772.41,-157"/>
<polygon fill="black" stroke="black" points="772.41,-160.5 782.41,-157 772.41,-153.5 772.41,-160.5"/>
</g>
<!-- PrismaModule -->
<g id="node3" class="node">
<title>PrismaModule</title>
<polygon fill="#8dd3c7" stroke="black" points="576.43,-122 573.43,-126 552.43,-126 549.43,-122 477.57,-122 477.57,-86 576.43,-86 576.43,-122"/>
<text text-anchor="middle" x="527" y="-99.8" font-family="Times,serif" font-size="14.00">PrismaModule</text>
</g>
<!-- PrismaModule&#45;&gt;AuthModule -->
<g id="edge3" class="edge">
<title>PrismaModule&#45;&gt;AuthModule</title>
<path fill="none" stroke="black" d="M527,-122.02C527,-139.37 527,-163 527,-163 527,-163 772.2,-163 772.2,-163"/>
<polygon fill="black" stroke="black" points="772.2,-166.5 782.2,-163 772.2,-159.5 772.2,-166.5"/>
</g>
<!-- RmqModule -->
<g id="node4" class="node">
<title>RmqModule</title>
<polygon fill="#8dd3c7" stroke="black" points="459.28,-122 456.28,-126 435.28,-126 432.28,-122 372.72,-122 372.72,-86 459.28,-86 459.28,-122"/>
<text text-anchor="middle" x="416" y="-99.8" font-family="Times,serif" font-size="14.00">RmqModule</text>
</g>
<!-- RmqModule&#45;&gt;AuthModule -->
<g id="edge4" class="edge">
<title>RmqModule&#45;&gt;AuthModule</title>
<path fill="none" stroke="black" d="M416,-122.11C416,-141.34 416,-169 416,-169 416,-169 772.12,-169 772.12,-169"/>
<polygon fill="black" stroke="black" points="772.12,-172.5 782.12,-169 772.12,-165.5 772.12,-172.5"/>
</g>
<!-- UsersMicroserviceModule -->
<g id="node5" class="node">
<title>UsersMicroserviceModule</title>
<polygon fill="#8dd3c7" stroke="black" points="354.77,-122 351.77,-126 330.77,-126 327.77,-122 189.23,-122 189.23,-86 354.77,-86 354.77,-122"/>
<text text-anchor="middle" x="272" y="-99.8" font-family="Times,serif" font-size="14.00">UsersMicroserviceModule</text>
</g>
<!-- UsersMicroserviceModule&#45;&gt;AuthModule -->
<g id="edge5" class="edge">
<title>UsersMicroserviceModule&#45;&gt;AuthModule</title>
<path fill="none" stroke="black" d="M272,-122.28C272,-143.32 272,-175 272,-175 272,-175 772.07,-175 772.07,-175"/>
<polygon fill="black" stroke="black" points="772.07,-178.5 782.07,-175 772.07,-171.5 772.07,-178.5"/>
</g>
<!-- WinstonLoggerModule -->
<g id="node6" class="node">
<title>WinstonLoggerModule</title>
<polygon fill="#8dd3c7" stroke="black" points="171.92,-122 168.92,-126 147.92,-126 144.92,-122 24.08,-122 24.08,-86 171.92,-86 171.92,-122"/>
<text text-anchor="middle" x="98" y="-99.8" font-family="Times,serif" font-size="14.00">WinstonLoggerModule</text>
</g>
<!-- WinstonLoggerModule&#45;&gt;AuthModule -->
<g id="edge6" class="edge">
<title>WinstonLoggerModule&#45;&gt;AuthModule</title>
<path fill="none" stroke="black" d="M98,-122.25C98,-145.02 98,-181 98,-181 98,-181 772.37,-181 772.37,-181"/>
<polygon fill="black" stroke="black" points="772.37,-184.5 782.37,-181 772.37,-177.5 772.37,-184.5"/>
</g>
<!-- AuthRepository  -->
<g id="node8" class="node">
<title>AuthRepository </title>
<polygon fill="#fb8072" stroke="black" points="947.43,-252 838.57,-252 838.57,-216 947.43,-216 947.43,-252"/>
<text text-anchor="middle" x="893" y="-229.8" font-family="Times,serif" font-size="14.00">AuthRepository </text>
</g>
<!-- AuthModule&#45;&gt;AuthRepository  -->
<g id="edge7" class="edge">
<title>AuthModule&#45;&gt;AuthRepository </title>
<path fill="none" stroke="black" stroke-dasharray="5,2" d="M854.15,-187.11C854.15,-187.11 854.15,-205.99 854.15,-205.99"/>
<polygon fill="black" stroke="black" points="850.65,-205.99 854.15,-215.99 857.65,-205.99 850.65,-205.99"/>
</g>
<!-- JwtTokensService  -->
<g id="node9" class="node">
<title>JwtTokensService </title>
<polygon fill="#fb8072" stroke="black" points="820.13,-252 697.87,-252 697.87,-216 820.13,-216 820.13,-252"/>
<text text-anchor="middle" x="759" y="-229.8" font-family="Times,serif" font-size="14.00">JwtTokensService </text>
</g>
<!-- AuthModule&#45;&gt;JwtTokensService  -->
<g id="edge8" class="edge">
<title>AuthModule&#45;&gt;JwtTokensService </title>
<path fill="none" stroke="black" stroke-dasharray="5,2" d="M801.15,-187.11C801.15,-187.11 801.15,-205.99 801.15,-205.99"/>
<polygon fill="black" stroke="black" points="797.65,-205.99 801.15,-215.99 804.65,-205.99 797.65,-205.99"/>
</g>
<!-- AuditService -->
<g id="node10" class="node">
<title>AuditService</title>
<ellipse fill="#fdb462" stroke="black" cx="1689" cy="-104" rx="61.98" ry="18"/>
<text text-anchor="middle" x="1689" y="-99.8" font-family="Times,serif" font-size="14.00">AuditService</text>
</g>
<!-- AuditService&#45;&gt;AuthModule -->
<g id="edge9" class="edge">
<title>AuditService&#45;&gt;AuthModule</title>
<path fill="none" stroke="black" d="M1689,-122.25C1689,-145.02 1689,-181 1689,-181 1689,-181 879.68,-181 879.68,-181"/>
<polygon fill="black" stroke="black" points="879.68,-177.5 869.68,-181 879.68,-184.5 879.68,-177.5"/>
</g>
<!-- AuthRepository -->
<g id="node11" class="node">
<title>AuthRepository</title>
<ellipse fill="#fdb462" stroke="black" cx="1536" cy="-104" rx="72.95" ry="18"/>
<text text-anchor="middle" x="1536" y="-99.8" font-family="Times,serif" font-size="14.00">AuthRepository</text>
</g>
<!-- AuthRepository&#45;&gt;AuthModule -->
<g id="edge10" class="edge">
<title>AuthRepository&#45;&gt;AuthModule</title>
<path fill="none" stroke="black" d="M1536,-122.28C1536,-143.32 1536,-175 1536,-175 1536,-175 879.61,-175 879.61,-175"/>
<polygon fill="black" stroke="black" points="879.61,-171.5 869.61,-175 879.61,-178.5 879.61,-171.5"/>
</g>
<!-- AuthService -->
<g id="node12" class="node">
<title>AuthService</title>
<ellipse fill="#fdb462" stroke="black" cx="1386" cy="-104" rx="59.11" ry="18"/>
<text text-anchor="middle" x="1386" y="-99.8" font-family="Times,serif" font-size="14.00">AuthService</text>
</g>
<!-- AuthService&#45;&gt;AuthModule -->
<g id="edge11" class="edge">
<title>AuthService&#45;&gt;AuthModule</title>
<path fill="none" stroke="black" d="M1386,-122.11C1386,-141.34 1386,-169 1386,-169 1386,-169 879.94,-169 879.94,-169"/>
<polygon fill="black" stroke="black" points="879.94,-165.5 869.94,-169 879.94,-172.5 879.94,-165.5"/>
</g>
<!-- JwtTokensService -->
<g id="node13" class="node">
<title>JwtTokensService</title>
<ellipse fill="#fdb462" stroke="black" cx="1227" cy="-104" rx="81.66" ry="18"/>
<text text-anchor="middle" x="1227" y="-99.8" font-family="Times,serif" font-size="14.00">JwtTokensService</text>
</g>
<!-- JwtTokensService&#45;&gt;AuthModule -->
<g id="edge12" class="edge">
<title>JwtTokensService&#45;&gt;AuthModule</title>
<path fill="none" stroke="black" d="M1227,-122.02C1227,-139.37 1227,-163 1227,-163 1227,-163 879.68,-163 879.68,-163"/>
<polygon fill="black" stroke="black" points="879.68,-159.5 869.68,-163 879.68,-166.5 879.68,-159.5"/>
</g>
<!-- MailerMicroserviceService -->
<g id="node14" class="node">
<title>MailerMicroserviceService</title>
<ellipse fill="#fdb462" stroke="black" cx="1010" cy="-104" rx="116.84" ry="18"/>
<text text-anchor="middle" x="1010" y="-99.8" font-family="Times,serif" font-size="14.00">MailerMicroserviceService</text>
</g>
<!-- MailerMicroserviceService&#45;&gt;AuthModule -->
<g id="edge13" class="edge">
<title>MailerMicroserviceService&#45;&gt;AuthModule</title>
<path fill="none" stroke="black" d="M920.4,-115.76C920.4,-131.38 920.4,-157 920.4,-157 920.4,-157 879.61,-157 879.61,-157"/>
<polygon fill="black" stroke="black" points="879.61,-153.5 869.61,-157 879.61,-160.5 879.61,-153.5"/>
</g>
</g>
</svg>
