<?xml version="1.0" encoding="UTF-8" standalone="no"?>
<!DOCTYPE svg PUBLIC "-//W3C//DTD SVG 1.1//EN"
 "http://www.w3.org/Graphics/SVG/1.1/DTD/svg11.dtd">
<!-- Generated by graphviz version 2.47.0 (20210316.0004)
 -->
<!-- Title: dependencies Pages: 1 -->
<svg width="1353pt" height="211pt"
 viewBox="0.00 0.00 1353.00 211.00" xmlns="http://www.w3.org/2000/svg" xmlns:xlink="http://www.w3.org/1999/xlink">
<g id="graph0" class="graph" transform="scale(1 1) rotate(0) translate(4 207)">
<title>dependencies</title>
<polygon fill="white" stroke="transparent" points="-4,4 -4,-207 1349,-207 1349,4 -4,4"/>
<text text-anchor="start" x="651.51" y="-42.4" font-family="Times-12" font-weight="bold" font-size="14.00">Legend</text>
<polygon fill="#ffffb3" stroke="transparent" points="438.5,-10 438.5,-30 458.5,-30 458.5,-10 438.5,-10"/>
<text text-anchor="start" x="462.13" y="-15.4" font-family="Times-12" font-size="14.00"> &#160;Declarations</text>
<polygon fill="#8dd3c7" stroke="transparent" points="551.5,-10 551.5,-30 571.5,-30 571.5,-10 551.5,-10"/>
<text text-anchor="start" x="575.23" y="-15.4" font-family="Times-12" font-size="14.00"> &#160;Module</text>
<polygon fill="#80b1d3" stroke="transparent" points="637.5,-10 637.5,-30 657.5,-30 657.5,-10 637.5,-10"/>
<text text-anchor="start" x="661.28" y="-15.4" font-family="Times-12" font-size="14.00"> &#160;Bootstrap</text>
<polygon fill="#fdb462" stroke="transparent" points="734.5,-10 734.5,-30 754.5,-30 754.5,-10 734.5,-10"/>
<text text-anchor="start" x="758.17" y="-15.4" font-family="Times-12" font-size="14.00"> &#160;Providers</text>
<polygon fill="#fb8072" stroke="transparent" points="830.5,-10 830.5,-30 850.5,-30 850.5,-10 830.5,-10"/>
<text text-anchor="start" x="854.23" y="-15.4" font-family="Times-12" font-size="14.00"> &#160;Exports</text>
<g id="clust1" class="cluster">
<title>cluster_AuthMicroserviceModule</title>
<polygon fill="none" stroke="black" stroke-dasharray="1,5" points="8,-70 8,-195 1337,-195 1337,-70 8,-70"/>
</g>
<g id="clust6" class="cluster">
<title>cluster_AuthMicroserviceModule_providers</title>
<polygon fill="none" stroke="black" points="921,-78 921,-130 1329,-130 1329,-78 921,-78"/>
</g>
<g id="clust3" class="cluster">
<title>cluster_AuthMicroserviceModule_imports</title>
<polygon fill="none" stroke="black" points="16,-78 16,-130 913,-130 913,-78 16,-78"/>
</g>
<!-- AuthModule -->
<g id="node1" class="node">
<title>AuthModule</title>
<polygon fill="#8dd3c7" stroke="black" points="904.55,-122 901.55,-126 880.55,-126 877.55,-122 817.45,-122 817.45,-86 904.55,-86 904.55,-122"/>
<text text-anchor="middle" x="861" y="-99.8" font-family="Times,serif" font-size="14.00">AuthModule</text>
</g>
<!-- AuthMicroserviceModule -->
<g id="node7" class="node">
<title>AuthMicroserviceModule</title>
<polygon fill="#8dd3c7" stroke="black" points="794.9,-187 791.9,-191 770.9,-191 767.9,-187 633.1,-187 633.1,-151 794.9,-151 794.9,-187"/>
<text text-anchor="middle" x="714" y="-164.8" font-family="Times,serif" font-size="14.00">AuthMicroserviceModule</text>
</g>
<!-- AuthModule&#45;&gt;AuthMicroserviceModule -->
<g id="edge1" class="edge">
<title>AuthModule&#45;&gt;AuthMicroserviceModule</title>
<path fill="none" stroke="black" d="M861,-122.01C861,-138.05 861,-159 861,-159 861,-159 804.81,-159 804.81,-159"/>
<polygon fill="black" stroke="black" points="804.81,-155.5 794.81,-159 804.81,-162.5 804.81,-155.5"/>
</g>
<!-- MailerMicroserviceModule -->
<g id="node2" class="node">
<title>MailerMicroserviceModule</title>
<polygon fill="#8dd3c7" stroke="black" points="799.22,-122 796.22,-126 775.22,-126 772.22,-122 628.78,-122 628.78,-86 799.22,-86 799.22,-122"/>
<text text-anchor="middle" x="714" y="-99.8" font-family="Times,serif" font-size="14.00">MailerMicroserviceModule</text>
</g>
<!-- MailerMicroserviceModule&#45;&gt;AuthMicroserviceModule -->
<g id="edge2" class="edge">
<title>MailerMicroserviceModule&#45;&gt;AuthMicroserviceModule</title>
<path fill="none" stroke="black" d="M714,-122.11C714,-122.11 714,-140.99 714,-140.99"/>
<polygon fill="black" stroke="black" points="710.5,-140.99 714,-150.99 717.5,-140.99 710.5,-140.99"/>
</g>
<!-- NotificationsModule -->
<g id="node3" class="node">
<title>NotificationsModule</title>
<polygon fill="#8dd3c7" stroke="black" points="610.14,-122 607.14,-126 586.14,-126 583.14,-122 477.86,-122 477.86,-86 610.14,-86 610.14,-122"/>
<text text-anchor="middle" x="544" y="-99.8" font-family="Times,serif" font-size="14.00">NotificationsModule</text>
</g>
<!-- NotificationsModule&#45;&gt;AuthMicroserviceModule -->
<g id="edge3" class="edge">
<title>NotificationsModule&#45;&gt;AuthMicroserviceModule</title>
<path fill="none" stroke="black" d="M544,-122.01C544,-138.05 544,-159 544,-159 544,-159 622.98,-159 622.98,-159"/>
<polygon fill="black" stroke="black" points="622.98,-162.5 632.98,-159 622.98,-155.5 622.98,-162.5"/>
</g>
<!-- RmqModule -->
<g id="node4" class="node">
<title>RmqModule</title>
<polygon fill="#8dd3c7" stroke="black" points="459.28,-122 456.28,-126 435.28,-126 432.28,-122 372.72,-122 372.72,-86 459.28,-86 459.28,-122"/>
<text text-anchor="middle" x="416" y="-99.8" font-family="Times,serif" font-size="14.00">RmqModule</text>
</g>
<!-- RmqModule&#45;&gt;AuthMicroserviceModule -->
<g id="edge4" class="edge">
<title>RmqModule&#45;&gt;AuthMicroserviceModule</title>
<path fill="none" stroke="black" d="M416,-122.27C416,-140.56 416,-166 416,-166 416,-166 622.96,-166 622.96,-166"/>
<polygon fill="black" stroke="black" points="622.96,-169.5 632.96,-166 622.96,-162.5 622.96,-169.5"/>
</g>
<!-- UsersMicroserviceModule -->
<g id="node5" class="node">
<title>UsersMicroserviceModule</title>
<polygon fill="#8dd3c7" stroke="black" points="354.77,-122 351.77,-126 330.77,-126 327.77,-122 189.23,-122 189.23,-86 354.77,-86 354.77,-122"/>
<text text-anchor="middle" x="272" y="-99.8" font-family="Times,serif" font-size="14.00">UsersMicroserviceModule</text>
</g>
<!-- UsersMicroserviceModule&#45;&gt;AuthMicroserviceModule -->
<g id="edge5" class="edge">
<title>UsersMicroserviceModule&#45;&gt;AuthMicroserviceModule</title>
<path fill="none" stroke="black" d="M272,-122.13C272,-142.57 272,-173 272,-173 272,-173 623.19,-173 623.19,-173"/>
<polygon fill="black" stroke="black" points="623.19,-176.5 633.19,-173 623.19,-169.5 623.19,-176.5"/>
</g>
<!-- WinstonLoggerModule -->
<g id="node6" class="node">
<title>WinstonLoggerModule</title>
<polygon fill="#8dd3c7" stroke="black" points="171.92,-122 168.92,-126 147.92,-126 144.92,-122 24.08,-122 24.08,-86 171.92,-86 171.92,-122"/>
<text text-anchor="middle" x="98" y="-99.8" font-family="Times,serif" font-size="14.00">WinstonLoggerModule</text>
</g>
<!-- WinstonLoggerModule&#45;&gt;AuthMicroserviceModule -->
<g id="edge6" class="edge">
<title>WinstonLoggerModule&#45;&gt;AuthMicroserviceModule</title>
<path fill="none" stroke="black" d="M98,-122.01C98,-144.49 98,-180 98,-180 98,-180 623.15,-180 623.15,-180"/>
<polygon fill="black" stroke="black" points="623.15,-183.5 633.15,-180 623.15,-176.5 623.15,-183.5"/>
</g>
<!-- AtStrategy -->
<g id="node8" class="node">
<title>AtStrategy</title>
<ellipse fill="#fdb462" stroke="black" cx="1268" cy="-104" rx="52.74" ry="18"/>
<text text-anchor="middle" x="1268" y="-99.8" font-family="Times,serif" font-size="14.00">AtStrategy</text>
</g>
<!-- AtStrategy&#45;&gt;AuthMicroserviceModule -->
<g id="edge7" class="edge">
<title>AtStrategy&#45;&gt;AuthMicroserviceModule</title>
<path fill="none" stroke="black" d="M1268,-122.01C1268,-144.49 1268,-180 1268,-180 1268,-180 804.85,-180 804.85,-180"/>
<polygon fill="black" stroke="black" points="804.85,-176.5 794.85,-180 804.85,-183.5 804.85,-176.5"/>
</g>
<!-- AuthRepository -->
<g id="node9" class="node">
<title>AuthRepository</title>
<ellipse fill="#fdb462" stroke="black" cx="1124" cy="-104" rx="72.95" ry="18"/>
<text text-anchor="middle" x="1124" y="-99.8" font-family="Times,serif" font-size="14.00">AuthRepository</text>
</g>
<!-- AuthRepository&#45;&gt;AuthMicroserviceModule -->
<g id="edge8" class="edge">
<title>AuthRepository&#45;&gt;AuthMicroserviceModule</title>
<path fill="none" stroke="black" d="M1124,-122.13C1124,-142.57 1124,-173 1124,-173 1124,-173 805,-173 805,-173"/>
<polygon fill="black" stroke="black" points="805,-169.5 795,-173 805,-176.5 805,-169.5"/>
</g>
<!-- RtStrategy -->
<g id="node10" class="node">
<title>RtStrategy</title>
<ellipse fill="#fdb462" stroke="black" cx="981" cy="-104" rx="52.18" ry="18"/>
<text text-anchor="middle" x="981" y="-99.8" font-family="Times,serif" font-size="14.00">RtStrategy</text>
</g>
<!-- RtStrategy&#45;&gt;AuthMicroserviceModule -->
<g id="edge9" class="edge">
<title>RtStrategy&#45;&gt;AuthMicroserviceModule</title>
<path fill="none" stroke="black" d="M981,-122.27C981,-140.56 981,-166 981,-166 981,-166 804.83,-166 804.83,-166"/>
<polygon fill="black" stroke="black" points="804.83,-162.5 794.83,-166 804.83,-169.5 804.83,-162.5"/>
</g>
</g>
</svg>
