<?xml version="1.0" encoding="UTF-8" standalone="no"?>
<!DOCTYPE svg PUBLIC "-//W3C//DTD SVG 1.1//EN"
 "http://www.w3.org/Graphics/SVG/1.1/DTD/svg11.dtd">
<!-- Generated by graphviz version 2.47.0 (20210316.0004)
 -->
<!-- Title: dependencies Pages: 1 -->
<svg width="504pt" height="211pt"
 viewBox="0.00 0.00 504.00 211.00" xmlns="http://www.w3.org/2000/svg" xmlns:xlink="http://www.w3.org/1999/xlink">
<g id="graph0" class="graph" transform="scale(1 1) rotate(0) translate(4 207)">
<title>dependencies</title>
<polygon fill="white" stroke="transparent" points="-4,4 -4,-207 500,-207 500,4 -4,4"/>
<text text-anchor="start" x="227.01" y="-42.4" font-family="Times-12" font-weight="bold" font-size="14.00">Legend</text>
<polygon fill="#ffffb3" stroke="transparent" points="14,-10 14,-30 34,-30 34,-10 14,-10"/>
<text text-anchor="start" x="37.63" y="-15.4" font-family="Times-12" font-size="14.00"> &#160;Declarations</text>
<polygon fill="#8dd3c7" stroke="transparent" points="127,-10 127,-30 147,-30 147,-10 127,-10"/>
<text text-anchor="start" x="150.73" y="-15.4" font-family="Times-12" font-size="14.00"> &#160;Module</text>
<polygon fill="#80b1d3" stroke="transparent" points="213,-10 213,-30 233,-30 233,-10 213,-10"/>
<text text-anchor="start" x="236.78" y="-15.4" font-family="Times-12" font-size="14.00"> &#160;Bootstrap</text>
<polygon fill="#fdb462" stroke="transparent" points="310,-10 310,-30 330,-30 330,-10 310,-10"/>
<text text-anchor="start" x="333.67" y="-15.4" font-family="Times-12" font-size="14.00"> &#160;Providers</text>
<polygon fill="#fb8072" stroke="transparent" points="406,-10 406,-30 426,-30 426,-10 406,-10"/>
<text text-anchor="start" x="429.73" y="-15.4" font-family="Times-12" font-size="14.00"> &#160;Exports</text>
<g id="clust1" class="cluster">
<title>cluster_UploadVideoGatewayModule</title>
<polygon fill="none" stroke="black" stroke-dasharray="1,5" points="51,-70 51,-195 445,-195 445,-70 51,-70"/>
</g>
<g id="clust3" class="cluster">
<title>cluster_UploadVideoGatewayModule_imports</title>
<polygon fill="none" stroke="black" points="335,-78 335,-130 437,-130 437,-78 335,-78"/>
</g>
<g id="clust6" class="cluster">
<title>cluster_UploadVideoGatewayModule_providers</title>
<polygon fill="none" stroke="black" points="59,-78 59,-130 327,-130 327,-78 59,-78"/>
</g>
<!-- RmqModule -->
<g id="node1" class="node">
<title>RmqModule</title>
<polygon fill="#8dd3c7" stroke="black" points="429.28,-122 426.28,-126 405.28,-126 402.28,-122 342.72,-122 342.72,-86 429.28,-86 429.28,-122"/>
<text text-anchor="middle" x="386" y="-99.8" font-family="Times,serif" font-size="14.00">RmqModule</text>
</g>
<!-- UploadVideoGatewayModule -->
<g id="node2" class="node">
<title>UploadVideoGatewayModule</title>
<polygon fill="#8dd3c7" stroke="black" points="361.22,-187 358.22,-191 337.22,-191 334.22,-187 176.78,-187 176.78,-151 361.22,-151 361.22,-187"/>
<text text-anchor="middle" x="269" y="-164.8" font-family="Times,serif" font-size="14.00">UploadVideoGatewayModule</text>
</g>
<!-- RmqModule&#45;&gt;UploadVideoGatewayModule -->
<g id="edge1" class="edge">
<title>RmqModule&#45;&gt;UploadVideoGatewayModule</title>
<path fill="none" stroke="black" d="M351.99,-122.11C351.99,-122.11 351.99,-140.99 351.99,-140.99"/>
<polygon fill="black" stroke="black" points="348.49,-140.99 351.99,-150.99 355.49,-140.99 348.49,-140.99"/>
</g>
<!-- UploadVideoGatewayService -->
<g id="node3" class="node">
<title>UploadVideoGatewayService</title>
<ellipse fill="#fdb462" stroke="black" cx="193" cy="-104" rx="126.17" ry="18"/>
<text text-anchor="middle" x="193" y="-99.8" font-family="Times,serif" font-size="14.00">UploadVideoGatewayService</text>
</g>
<!-- UploadVideoGatewayService&#45;&gt;UploadVideoGatewayModule -->
<g id="edge2" class="edge">
<title>UploadVideoGatewayService&#45;&gt;UploadVideoGatewayModule</title>
<path fill="none" stroke="black" d="M247.99,-120.4C247.99,-120.4 247.99,-140.54 247.99,-140.54"/>
<polygon fill="black" stroke="black" points="244.49,-140.54 247.99,-150.54 251.49,-140.54 244.49,-140.54"/>
</g>
</g>
</svg>
