<?xml version="1.0" encoding="UTF-8" standalone="no"?>
<!DOCTYPE svg PUBLIC "-//W3C//DTD SVG 1.1//EN"
 "http://www.w3.org/Graphics/SVG/1.1/DTD/svg11.dtd">
<!-- Generated by graphviz version 2.47.0 (20210316.0004)
 -->
<!-- Title: dependencies Pages: 1 -->
<svg width="786pt" height="211pt"
 viewBox="0.00 0.00 786.00 211.00" xmlns="http://www.w3.org/2000/svg" xmlns:xlink="http://www.w3.org/1999/xlink">
<g id="graph0" class="graph" transform="scale(1 1) rotate(0) translate(4 207)">
<title>dependencies</title>
<polygon fill="white" stroke="transparent" points="-4,4 -4,-207 782,-207 782,4 -4,4"/>
<text text-anchor="start" x="368.01" y="-42.4" font-family="Times-12" font-weight="bold" font-size="14.00">Legend</text>
<polygon fill="#ffffb3" stroke="transparent" points="155,-10 155,-30 175,-30 175,-10 155,-10"/>
<text text-anchor="start" x="178.63" y="-15.4" font-family="Times-12" font-size="14.00"> &#160;Declarations</text>
<polygon fill="#8dd3c7" stroke="transparent" points="268,-10 268,-30 288,-30 288,-10 268,-10"/>
<text text-anchor="start" x="291.73" y="-15.4" font-family="Times-12" font-size="14.00"> &#160;Module</text>
<polygon fill="#80b1d3" stroke="transparent" points="354,-10 354,-30 374,-30 374,-10 354,-10"/>
<text text-anchor="start" x="377.78" y="-15.4" font-family="Times-12" font-size="14.00"> &#160;Bootstrap</text>
<polygon fill="#fdb462" stroke="transparent" points="451,-10 451,-30 471,-30 471,-10 451,-10"/>
<text text-anchor="start" x="474.67" y="-15.4" font-family="Times-12" font-size="14.00"> &#160;Providers</text>
<polygon fill="#fb8072" stroke="transparent" points="547,-10 547,-30 567,-30 567,-10 547,-10"/>
<text text-anchor="start" x="570.73" y="-15.4" font-family="Times-12" font-size="14.00"> &#160;Exports</text>
<g id="clust1" class="cluster">
<title>cluster_MealsModule</title>
<polygon fill="none" stroke="black" stroke-dasharray="1,5" points="8,-70 8,-195 770,-195 770,-70 8,-70"/>
</g>
<g id="clust3" class="cluster">
<title>cluster_MealsModule_imports</title>
<polygon fill="none" stroke="black" points="543,-78 543,-130 762,-130 762,-78 543,-78"/>
</g>
<g id="clust6" class="cluster">
<title>cluster_MealsModule_providers</title>
<polygon fill="none" stroke="black" points="16,-78 16,-130 535,-130 535,-78 16,-78"/>
</g>
<!-- PrismaModule -->
<g id="node1" class="node">
<title>PrismaModule</title>
<polygon fill="#8dd3c7" stroke="black" points="754.43,-122 751.43,-126 730.43,-126 727.43,-122 655.57,-122 655.57,-86 754.43,-86 754.43,-122"/>
<text text-anchor="middle" x="705" y="-99.8" font-family="Times,serif" font-size="14.00">PrismaModule</text>
</g>
<!-- MealsModule -->
<g id="node3" class="node">
<title>MealsModule</title>
<polygon fill="#8dd3c7" stroke="black" points="542.76,-187 539.76,-191 518.76,-191 515.76,-187 449.24,-187 449.24,-151 542.76,-151 542.76,-187"/>
<text text-anchor="middle" x="496" y="-164.8" font-family="Times,serif" font-size="14.00">MealsModule</text>
</g>
<!-- PrismaModule&#45;&gt;MealsModule -->
<g id="edge1" class="edge">
<title>PrismaModule&#45;&gt;MealsModule</title>
<path fill="none" stroke="black" d="M705,-122.11C705,-141.34 705,-169 705,-169 705,-169 552.9,-169 552.9,-169"/>
<polygon fill="black" stroke="black" points="552.9,-165.5 542.9,-169 552.9,-172.5 552.9,-165.5"/>
</g>
<!-- RmqModule -->
<g id="node2" class="node">
<title>RmqModule</title>
<polygon fill="#8dd3c7" stroke="black" points="637.28,-122 634.28,-126 613.28,-126 610.28,-122 550.72,-122 550.72,-86 637.28,-86 637.28,-122"/>
<text text-anchor="middle" x="594" y="-99.8" font-family="Times,serif" font-size="14.00">RmqModule</text>
</g>
<!-- RmqModule&#45;&gt;MealsModule -->
<g id="edge2" class="edge">
<title>RmqModule&#45;&gt;MealsModule</title>
<path fill="none" stroke="black" d="M550.44,-104C541.58,-104 534.92,-104 534.92,-104 534.92,-104 534.92,-140.89 534.92,-140.89"/>
<polygon fill="black" stroke="black" points="531.42,-140.89 534.92,-150.89 538.42,-140.89 531.42,-140.89"/>
</g>
<!-- MealsMicroserviceRepository -->
<g id="node4" class="node">
<title>MealsMicroserviceRepository</title>
<ellipse fill="#fdb462" stroke="black" cx="399" cy="-104" rx="127.9" ry="18"/>
<text text-anchor="middle" x="399" y="-99.8" font-family="Times,serif" font-size="14.00">MealsMicroserviceRepository</text>
</g>
<!-- MealsMicroserviceRepository&#45;&gt;MealsModule -->
<g id="edge3" class="edge">
<title>MealsMicroserviceRepository&#45;&gt;MealsModule</title>
<path fill="none" stroke="black" d="M488.04,-117.15C488.04,-117.15 488.04,-140.69 488.04,-140.69"/>
<polygon fill="black" stroke="black" points="484.54,-140.69 488.04,-150.69 491.54,-140.69 484.54,-140.69"/>
</g>
<!-- MealsMicroserviceService -->
<g id="node5" class="node">
<title>MealsMicroserviceService</title>
<ellipse fill="#fdb462" stroke="black" cx="139" cy="-104" rx="114.56" ry="18"/>
<text text-anchor="middle" x="139" y="-99.8" font-family="Times,serif" font-size="14.00">MealsMicroserviceService</text>
</g>
<!-- MealsMicroserviceService&#45;&gt;MealsModule -->
<g id="edge4" class="edge">
<title>MealsMicroserviceService&#45;&gt;MealsModule</title>
<path fill="none" stroke="black" d="M139,-122.11C139,-141.34 139,-169 139,-169 139,-169 438.96,-169 438.96,-169"/>
<polygon fill="black" stroke="black" points="438.96,-172.5 448.96,-169 438.96,-165.5 438.96,-172.5"/>
</g>
</g>
</svg>
