<?xml version="1.0" encoding="UTF-8" standalone="no"?>
<!DOCTYPE svg PUBLIC "-//W3C//DTD SVG 1.1//EN"
 "http://www.w3.org/Graphics/SVG/1.1/DTD/svg11.dtd">
<!-- Generated by graphviz version 2.47.0 (20210316.0004)
 -->
<!-- Title: dependencies Pages: 1 -->
<svg width="1716pt" height="211pt"
 viewBox="0.00 0.00 1716.00 211.00" xmlns="http://www.w3.org/2000/svg" xmlns:xlink="http://www.w3.org/1999/xlink">
<g id="graph0" class="graph" transform="scale(1 1) rotate(0) translate(4 207)">
<title>dependencies</title>
<polygon fill="white" stroke="transparent" points="-4,4 -4,-207 1712,-207 1712,4 -4,4"/>
<text text-anchor="start" x="833.01" y="-42.4" font-family="Times-12" font-weight="bold" font-size="14.00">Legend</text>
<polygon fill="#ffffb3" stroke="transparent" points="620,-10 620,-30 640,-30 640,-10 620,-10"/>
<text text-anchor="start" x="643.63" y="-15.4" font-family="Times-12" font-size="14.00"> &#160;Declarations</text>
<polygon fill="#8dd3c7" stroke="transparent" points="733,-10 733,-30 753,-30 753,-10 733,-10"/>
<text text-anchor="start" x="756.73" y="-15.4" font-family="Times-12" font-size="14.00"> &#160;Module</text>
<polygon fill="#80b1d3" stroke="transparent" points="819,-10 819,-30 839,-30 839,-10 819,-10"/>
<text text-anchor="start" x="842.78" y="-15.4" font-family="Times-12" font-size="14.00"> &#160;Bootstrap</text>
<polygon fill="#fdb462" stroke="transparent" points="916,-10 916,-30 936,-30 936,-10 916,-10"/>
<text text-anchor="start" x="939.67" y="-15.4" font-family="Times-12" font-size="14.00"> &#160;Providers</text>
<polygon fill="#fb8072" stroke="transparent" points="1012,-10 1012,-30 1032,-30 1032,-10 1012,-10"/>
<text text-anchor="start" x="1035.73" y="-15.4" font-family="Times-12" font-size="14.00"> &#160;Exports</text>
<g id="clust1" class="cluster">
<title>cluster_ApiGatewayModule</title>
<polygon fill="none" stroke="black" stroke-dasharray="1,5" points="8,-70 8,-195 1700,-195 1700,-70 8,-70"/>
</g>
<g id="clust3" class="cluster">
<title>cluster_ApiGatewayModule_imports</title>
<polygon fill="none" stroke="black" points="130,-78 130,-130 1692,-130 1692,-78 130,-78"/>
</g>
<g id="clust6" class="cluster">
<title>cluster_ApiGatewayModule_providers</title>
<polygon fill="none" stroke="black" points="16,-78 16,-130 122,-130 122,-78 16,-78"/>
</g>
<!-- AppleHealthGatewayModule -->
<g id="node1" class="node">
<title>AppleHealthGatewayModule</title>
<polygon fill="#8dd3c7" stroke="black" points="1684.33,-122 1681.33,-126 1660.33,-126 1657.33,-122 1503.67,-122 1503.67,-86 1684.33,-86 1684.33,-122"/>
<text text-anchor="middle" x="1594" y="-99.8" font-family="Times,serif" font-size="14.00">AppleHealthGatewayModule</text>
</g>
<!-- ApiGatewayModule -->
<g id="node10" class="node">
<title>ApiGatewayModule</title>
<polygon fill="#8dd3c7" stroke="black" points="910.29,-187 907.29,-191 886.29,-191 883.29,-187 779.71,-187 779.71,-151 910.29,-151 910.29,-187"/>
<text text-anchor="middle" x="845" y="-164.8" font-family="Times,serif" font-size="14.00">ApiGatewayModule</text>
</g>
<!-- AppleHealthGatewayModule&#45;&gt;ApiGatewayModule -->
<g id="edge1" class="edge">
<title>AppleHealthGatewayModule&#45;&gt;ApiGatewayModule</title>
<path fill="none" stroke="black" d="M1594,-122.01C1594,-144.49 1594,-180 1594,-180 1594,-180 920.16,-180 920.16,-180"/>
<polygon fill="black" stroke="black" points="920.16,-176.5 910.16,-180 920.16,-183.5 920.16,-176.5"/>
</g>
<!-- AuthGatewayModule -->
<g id="node2" class="node">
<title>AuthGatewayModule</title>
<polygon fill="#8dd3c7" stroke="black" points="1485.79,-122 1482.79,-126 1461.79,-126 1458.79,-122 1348.21,-122 1348.21,-86 1485.79,-86 1485.79,-122"/>
<text text-anchor="middle" x="1417" y="-99.8" font-family="Times,serif" font-size="14.00">AuthGatewayModule</text>
</g>
<!-- AuthGatewayModule&#45;&gt;ApiGatewayModule -->
<g id="edge2" class="edge">
<title>AuthGatewayModule&#45;&gt;ApiGatewayModule</title>
<path fill="none" stroke="black" d="M1417,-122.13C1417,-142.57 1417,-173 1417,-173 1417,-173 920.34,-173 920.34,-173"/>
<polygon fill="black" stroke="black" points="920.34,-169.5 910.34,-173 920.34,-176.5 920.34,-169.5"/>
</g>
<!-- ExerciseGatewayModule -->
<g id="node3" class="node">
<title>ExerciseGatewayModule</title>
<polygon fill="#8dd3c7" stroke="black" points="1330.99,-122 1327.99,-126 1306.99,-126 1303.99,-122 1173.01,-122 1173.01,-86 1330.99,-86 1330.99,-122"/>
<text text-anchor="middle" x="1252" y="-99.8" font-family="Times,serif" font-size="14.00">ExerciseGatewayModule</text>
</g>
<!-- ExerciseGatewayModule&#45;&gt;ApiGatewayModule -->
<g id="edge3" class="edge">
<title>ExerciseGatewayModule&#45;&gt;ApiGatewayModule</title>
<path fill="none" stroke="black" d="M1252,-122.27C1252,-140.56 1252,-166 1252,-166 1252,-166 920.39,-166 920.39,-166"/>
<polygon fill="black" stroke="black" points="920.39,-162.5 910.39,-166 920.39,-169.5 920.39,-162.5"/>
</g>
<!-- MealsGatewayModule -->
<g id="node4" class="node">
<title>MealsGatewayModule</title>
<polygon fill="#8dd3c7" stroke="black" points="1155.51,-122 1152.51,-126 1131.51,-126 1128.51,-122 1012.49,-122 1012.49,-86 1155.51,-86 1155.51,-122"/>
<text text-anchor="middle" x="1084" y="-99.8" font-family="Times,serif" font-size="14.00">MealsGatewayModule</text>
</g>
<!-- MealsGatewayModule&#45;&gt;ApiGatewayModule -->
<g id="edge4" class="edge">
<title>MealsGatewayModule&#45;&gt;ApiGatewayModule</title>
<path fill="none" stroke="black" d="M1084,-122.01C1084,-138.05 1084,-159 1084,-159 1084,-159 920.31,-159 920.31,-159"/>
<polygon fill="black" stroke="black" points="920.31,-155.5 910.31,-159 920.31,-162.5 920.31,-155.5"/>
</g>
<!-- NotificationsModule -->
<g id="node5" class="node">
<title>NotificationsModule</title>
<polygon fill="#8dd3c7" stroke="black" points="994.14,-122 991.14,-126 970.14,-126 967.14,-122 861.86,-122 861.86,-86 994.14,-86 994.14,-122"/>
<text text-anchor="middle" x="928" y="-99.8" font-family="Times,serif" font-size="14.00">NotificationsModule</text>
</g>
<!-- NotificationsModule&#45;&gt;ApiGatewayModule -->
<g id="edge5" class="edge">
<title>NotificationsModule&#45;&gt;ApiGatewayModule</title>
<path fill="none" stroke="black" d="M885.91,-122.11C885.91,-122.11 885.91,-140.99 885.91,-140.99"/>
<polygon fill="black" stroke="black" points="882.41,-140.99 885.91,-150.99 889.41,-140.99 882.41,-140.99"/>
</g>
<!-- NutritionGatewayModule -->
<g id="node6" class="node">
<title>NutritionGatewayModule</title>
<polygon fill="#8dd3c7" stroke="black" points="843.13,-122 840.13,-126 819.13,-126 816.13,-122 682.87,-122 682.87,-86 843.13,-86 843.13,-122"/>
<text text-anchor="middle" x="763" y="-99.8" font-family="Times,serif" font-size="14.00">NutritionGatewayModule</text>
</g>
<!-- NutritionGatewayModule&#45;&gt;ApiGatewayModule -->
<g id="edge6" class="edge">
<title>NutritionGatewayModule&#45;&gt;ApiGatewayModule</title>
<path fill="none" stroke="black" d="M811.58,-122.11C811.58,-122.11 811.58,-140.99 811.58,-140.99"/>
<polygon fill="black" stroke="black" points="808.08,-140.99 811.58,-150.99 815.08,-140.99 808.08,-140.99"/>
</g>
<!-- UploadVideoGatewayModule -->
<g id="node7" class="node">
<title>UploadVideoGatewayModule</title>
<polygon fill="#8dd3c7" stroke="black" points="664.22,-122 661.22,-126 640.22,-126 637.22,-122 479.78,-122 479.78,-86 664.22,-86 664.22,-122"/>
<text text-anchor="middle" x="572" y="-99.8" font-family="Times,serif" font-size="14.00">UploadVideoGatewayModule</text>
</g>
<!-- UploadVideoGatewayModule&#45;&gt;ApiGatewayModule -->
<g id="edge7" class="edge">
<title>UploadVideoGatewayModule&#45;&gt;ApiGatewayModule</title>
<path fill="none" stroke="black" d="M572,-122.01C572,-138.05 572,-159 572,-159 572,-159 769.61,-159 769.61,-159"/>
<polygon fill="black" stroke="black" points="769.61,-162.5 779.61,-159 769.61,-155.5 769.61,-162.5"/>
</g>
<!-- UsersGatewayModule -->
<g id="node8" class="node">
<title>UsersGatewayModule</title>
<polygon fill="#8dd3c7" stroke="black" points="461.67,-122 458.67,-126 437.67,-126 434.67,-122 320.33,-122 320.33,-86 461.67,-86 461.67,-122"/>
<text text-anchor="middle" x="391" y="-99.8" font-family="Times,serif" font-size="14.00">UsersGatewayModule</text>
</g>
<!-- UsersGatewayModule&#45;&gt;ApiGatewayModule -->
<g id="edge8" class="edge">
<title>UsersGatewayModule&#45;&gt;ApiGatewayModule</title>
<path fill="none" stroke="black" d="M391,-122.27C391,-140.56 391,-166 391,-166 391,-166 769.47,-166 769.47,-166"/>
<polygon fill="black" stroke="black" points="769.47,-169.5 779.47,-166 769.47,-162.5 769.47,-169.5"/>
</g>
<!-- WorkoutsGatewayModule -->
<g id="node9" class="node">
<title>WorkoutsGatewayModule</title>
<polygon fill="#8dd3c7" stroke="black" points="302.01,-122 299.01,-126 278.01,-126 275.01,-122 137.99,-122 137.99,-86 302.01,-86 302.01,-122"/>
<text text-anchor="middle" x="220" y="-99.8" font-family="Times,serif" font-size="14.00">WorkoutsGatewayModule</text>
</g>
<!-- WorkoutsGatewayModule&#45;&gt;ApiGatewayModule -->
<g id="edge9" class="edge">
<title>WorkoutsGatewayModule&#45;&gt;ApiGatewayModule</title>
<path fill="none" stroke="black" d="M220,-122.13C220,-142.57 220,-173 220,-173 220,-173 769.59,-173 769.59,-173"/>
<polygon fill="black" stroke="black" points="769.59,-176.5 779.59,-173 769.59,-169.5 769.59,-176.5"/>
</g>
<!-- AtGuard -->
<g id="node11" class="node">
<title>AtGuard</title>
<ellipse fill="#fdb462" stroke="black" cx="69" cy="-104" rx="44.64" ry="18"/>
<text text-anchor="middle" x="69" y="-99.8" font-family="Times,serif" font-size="14.00">AtGuard</text>
</g>
<!-- AtGuard&#45;&gt;ApiGatewayModule -->
<g id="edge10" class="edge">
<title>AtGuard&#45;&gt;ApiGatewayModule</title>
<path fill="none" stroke="black" d="M69,-122.01C69,-144.49 69,-180 69,-180 69,-180 769.84,-180 769.84,-180"/>
<polygon fill="black" stroke="black" points="769.84,-183.5 779.84,-180 769.84,-176.5 769.84,-183.5"/>
</g>
</g>
</svg>
