<?xml version="1.0" encoding="UTF-8" standalone="no"?>
<!DOCTYPE svg PUBLIC "-//W3C//DTD SVG 1.1//EN"
 "http://www.w3.org/Graphics/SVG/1.1/DTD/svg11.dtd">
<!-- Generated by graphviz version 2.47.0 (20210316.0004)
 -->
<!-- Title: dependencies Pages: 1 -->
<svg width="887pt" height="284pt"
 viewBox="0.00 0.00 887.00 284.00" xmlns="http://www.w3.org/2000/svg" xmlns:xlink="http://www.w3.org/1999/xlink">
<g id="graph0" class="graph" transform="scale(1 1) rotate(0) translate(4 280)">
<title>dependencies</title>
<polygon fill="white" stroke="transparent" points="-4,4 -4,-280 883,-280 883,4 -4,4"/>
<text text-anchor="start" x="418.51" y="-42.4" font-family="Times-12" font-weight="bold" font-size="14.00">Legend</text>
<polygon fill="#ffffb3" stroke="transparent" points="205.5,-10 205.5,-30 225.5,-30 225.5,-10 205.5,-10"/>
<text text-anchor="start" x="229.13" y="-15.4" font-family="Times-12" font-size="14.00"> &#160;Declarations</text>
<polygon fill="#8dd3c7" stroke="transparent" points="318.5,-10 318.5,-30 338.5,-30 338.5,-10 318.5,-10"/>
<text text-anchor="start" x="342.23" y="-15.4" font-family="Times-12" font-size="14.00"> &#160;Module</text>
<polygon fill="#80b1d3" stroke="transparent" points="404.5,-10 404.5,-30 424.5,-30 424.5,-10 404.5,-10"/>
<text text-anchor="start" x="428.28" y="-15.4" font-family="Times-12" font-size="14.00"> &#160;Bootstrap</text>
<polygon fill="#fdb462" stroke="transparent" points="501.5,-10 501.5,-30 521.5,-30 521.5,-10 501.5,-10"/>
<text text-anchor="start" x="525.17" y="-15.4" font-family="Times-12" font-size="14.00"> &#160;Providers</text>
<polygon fill="#fb8072" stroke="transparent" points="597.5,-10 597.5,-30 617.5,-30 617.5,-10 597.5,-10"/>
<text text-anchor="start" x="621.23" y="-15.4" font-family="Times-12" font-size="14.00"> &#160;Exports</text>
<g id="clust1" class="cluster">
<title>cluster_UsersMicroserviceModule</title>
<polygon fill="none" stroke="black" stroke-dasharray="1,5" points="8,-70 8,-268 871,-268 871,-70 8,-70"/>
</g>
<g id="clust3" class="cluster">
<title>cluster_UsersMicroserviceModule_imports</title>
<polygon fill="none" stroke="black" points="644,-78 644,-130 863,-130 863,-78 644,-78"/>
</g>
<g id="clust6" class="cluster">
<title>cluster_UsersMicroserviceModule_providers</title>
<polygon fill="none" stroke="black" points="16,-78 16,-130 636,-130 636,-78 16,-78"/>
</g>
<g id="clust4" class="cluster">
<title>cluster_UsersMicroserviceModule_exports</title>
<polygon fill="none" stroke="black" points="491,-208 491,-260 675,-260 675,-208 491,-208"/>
</g>
<!-- PrismaModule -->
<g id="node1" class="node">
<title>PrismaModule</title>
<polygon fill="#8dd3c7" stroke="black" points="855.43,-122 852.43,-126 831.43,-126 828.43,-122 756.57,-122 756.57,-86 855.43,-86 855.43,-122"/>
<text text-anchor="middle" x="806" y="-99.8" font-family="Times,serif" font-size="14.00">PrismaModule</text>
</g>
<!-- UsersMicroserviceModule -->
<g id="node3" class="node">
<title>UsersMicroserviceModule</title>
<polygon fill="#8dd3c7" stroke="black" points="665.77,-187 662.77,-191 641.77,-191 638.77,-187 500.23,-187 500.23,-151 665.77,-151 665.77,-187"/>
<text text-anchor="middle" x="583" y="-164.8" font-family="Times,serif" font-size="14.00">UsersMicroserviceModule</text>
</g>
<!-- PrismaModule&#45;&gt;UsersMicroserviceModule -->
<g id="edge1" class="edge">
<title>PrismaModule&#45;&gt;UsersMicroserviceModule</title>
<path fill="none" stroke="black" d="M806,-122.11C806,-141.34 806,-169 806,-169 806,-169 675.72,-169 675.72,-169"/>
<polygon fill="black" stroke="black" points="675.72,-165.5 665.72,-169 675.72,-172.5 675.72,-165.5"/>
</g>
<!-- RmqModule -->
<g id="node2" class="node">
<title>RmqModule</title>
<polygon fill="#8dd3c7" stroke="black" points="738.28,-122 735.28,-126 714.28,-126 711.28,-122 651.72,-122 651.72,-86 738.28,-86 738.28,-122"/>
<text text-anchor="middle" x="695" y="-99.8" font-family="Times,serif" font-size="14.00">RmqModule</text>
</g>
<!-- RmqModule&#45;&gt;UsersMicroserviceModule -->
<g id="edge2" class="edge">
<title>RmqModule&#45;&gt;UsersMicroserviceModule</title>
<path fill="none" stroke="black" d="M658.62,-122.11C658.62,-122.11 658.62,-140.99 658.62,-140.99"/>
<polygon fill="black" stroke="black" points="655.12,-140.99 658.62,-150.99 662.12,-140.99 655.12,-140.99"/>
</g>
<!-- UsersMicroserviceModule  -->
<g id="node4" class="node">
<title>UsersMicroserviceModule </title>
<polygon fill="#fb8072" stroke="black" points="667.27,-252 498.73,-252 498.73,-216 667.27,-216 667.27,-252"/>
<text text-anchor="middle" x="583" y="-229.8" font-family="Times,serif" font-size="14.00">UsersMicroserviceModule </text>
</g>
<!-- UsersMicroserviceModule&#45;&gt;UsersMicroserviceModule  -->
<g id="edge3" class="edge">
<title>UsersMicroserviceModule&#45;&gt;UsersMicroserviceModule </title>
<path fill="none" stroke="black" stroke-dasharray="5,2" d="M583,-187.11C583,-187.11 583,-205.99 583,-205.99"/>
<polygon fill="black" stroke="black" points="579.5,-205.99 583,-215.99 586.5,-205.99 579.5,-205.99"/>
</g>
<!-- AtGuard -->
<g id="node5" class="node">
<title>AtGuard</title>
<ellipse fill="#fdb462" stroke="black" cx="583" cy="-104" rx="44.64" ry="18"/>
<text text-anchor="middle" x="583" y="-99.8" font-family="Times,serif" font-size="14.00">AtGuard</text>
</g>
<!-- AtGuard&#45;&gt;UsersMicroserviceModule -->
<g id="edge4" class="edge">
<title>AtGuard&#45;&gt;UsersMicroserviceModule</title>
<path fill="none" stroke="black" d="M583,-122.11C583,-122.11 583,-140.99 583,-140.99"/>
<polygon fill="black" stroke="black" points="579.5,-140.99 583,-150.99 586.5,-140.99 579.5,-140.99"/>
</g>
<!-- UsersMicroserviceRepository -->
<g id="node6" class="node">
<title>UsersMicroserviceRepository</title>
<ellipse fill="#fdb462" stroke="black" cx="394" cy="-104" rx="126.18" ry="18"/>
<text text-anchor="middle" x="394" y="-99.8" font-family="Times,serif" font-size="14.00">UsersMicroserviceRepository</text>
</g>
<!-- UsersMicroserviceRepository&#45;&gt;UsersMicroserviceModule -->
<g id="edge5" class="edge">
<title>UsersMicroserviceRepository&#45;&gt;UsersMicroserviceModule</title>
<path fill="none" stroke="black" d="M510.35,-111.2C510.35,-111.2 510.35,-140.96 510.35,-140.96"/>
<polygon fill="black" stroke="black" points="506.85,-140.96 510.35,-150.96 513.85,-140.96 506.85,-140.96"/>
</g>
<!-- UsersMicroserviceService -->
<g id="node7" class="node">
<title>UsersMicroserviceService</title>
<ellipse fill="#fdb462" stroke="black" cx="137" cy="-104" rx="112.83" ry="18"/>
<text text-anchor="middle" x="137" y="-99.8" font-family="Times,serif" font-size="14.00">UsersMicroserviceService</text>
</g>
<!-- UsersMicroserviceService&#45;&gt;UsersMicroserviceModule -->
<g id="edge6" class="edge">
<title>UsersMicroserviceService&#45;&gt;UsersMicroserviceModule</title>
<path fill="none" stroke="black" d="M137,-122.11C137,-141.34 137,-169 137,-169 137,-169 490.16,-169 490.16,-169"/>
<polygon fill="black" stroke="black" points="490.16,-172.5 500.16,-169 490.16,-165.5 490.16,-172.5"/>
</g>
</g>
</svg>
