<?xml version="1.0" encoding="UTF-8" standalone="no"?>
<!DOCTYPE svg PUBLIC "-//W3C//DTD SVG 1.1//EN"
 "http://www.w3.org/Graphics/SVG/1.1/DTD/svg11.dtd">
<!-- Generated by graphviz version 2.47.0 (20210316.0004)
 -->
<!-- Title: dependencies Pages: 1 -->
<svg width="504pt" height="211pt"
 viewBox="0.00 0.00 504.00 211.00" xmlns="http://www.w3.org/2000/svg" xmlns:xlink="http://www.w3.org/1999/xlink">
<g id="graph0" class="graph" transform="scale(1 1) rotate(0) translate(4 207)">
<title>dependencies</title>
<polygon fill="white" stroke="transparent" points="-4,4 -4,-207 500,-207 500,4 -4,4"/>
<text text-anchor="start" x="227.01" y="-42.4" font-family="Times-12" font-weight="bold" font-size="14.00">Legend</text>
<polygon fill="#ffffb3" stroke="transparent" points="14,-10 14,-30 34,-30 34,-10 14,-10"/>
<text text-anchor="start" x="37.63" y="-15.4" font-family="Times-12" font-size="14.00"> &#160;Declarations</text>
<polygon fill="#8dd3c7" stroke="transparent" points="127,-10 127,-30 147,-30 147,-10 127,-10"/>
<text text-anchor="start" x="150.73" y="-15.4" font-family="Times-12" font-size="14.00"> &#160;Module</text>
<polygon fill="#80b1d3" stroke="transparent" points="213,-10 213,-30 233,-30 233,-10 213,-10"/>
<text text-anchor="start" x="236.78" y="-15.4" font-family="Times-12" font-size="14.00"> &#160;Bootstrap</text>
<polygon fill="#fdb462" stroke="transparent" points="310,-10 310,-30 330,-30 330,-10 310,-10"/>
<text text-anchor="start" x="333.67" y="-15.4" font-family="Times-12" font-size="14.00"> &#160;Providers</text>
<polygon fill="#fb8072" stroke="transparent" points="406,-10 406,-30 426,-30 426,-10 406,-10"/>
<text text-anchor="start" x="429.73" y="-15.4" font-family="Times-12" font-size="14.00"> &#160;Exports</text>
<g id="clust1" class="cluster">
<title>cluster_NotificationsModule</title>
<polygon fill="none" stroke="black" stroke-dasharray="1,5" points="130.5,-70 130.5,-195 365.5,-195 365.5,-70 130.5,-70"/>
</g>
<g id="clust3" class="cluster">
<title>cluster_NotificationsModule_imports</title>
<polygon fill="none" stroke="black" points="138.5,-78 138.5,-130 357.5,-130 357.5,-78 138.5,-78"/>
</g>
<!-- PrismaModule -->
<g id="node1" class="node">
<title>PrismaModule</title>
<polygon fill="#8dd3c7" stroke="black" points="349.93,-122 346.93,-126 325.93,-126 322.93,-122 251.07,-122 251.07,-86 349.93,-86 349.93,-122"/>
<text text-anchor="middle" x="300.5" y="-99.8" font-family="Times,serif" font-size="14.00">PrismaModule</text>
</g>
<!-- NotificationsModule -->
<g id="node3" class="node">
<title>NotificationsModule</title>
<polygon fill="#8dd3c7" stroke="black" points="313.64,-187 310.64,-191 289.64,-191 286.64,-187 181.36,-187 181.36,-151 313.64,-151 313.64,-187"/>
<text text-anchor="middle" x="247.5" y="-164.8" font-family="Times,serif" font-size="14.00">NotificationsModule</text>
</g>
<!-- PrismaModule&#45;&gt;NotificationsModule -->
<g id="edge1" class="edge">
<title>PrismaModule&#45;&gt;NotificationsModule</title>
<path fill="none" stroke="black" d="M282.55,-122.11C282.55,-122.11 282.55,-140.99 282.55,-140.99"/>
<polygon fill="black" stroke="black" points="279.05,-140.99 282.55,-150.99 286.05,-140.99 279.05,-140.99"/>
</g>
<!-- RmqModule -->
<g id="node2" class="node">
<title>RmqModule</title>
<polygon fill="#8dd3c7" stroke="black" points="232.78,-122 229.78,-126 208.78,-126 205.78,-122 146.22,-122 146.22,-86 232.78,-86 232.78,-122"/>
<text text-anchor="middle" x="189.5" y="-99.8" font-family="Times,serif" font-size="14.00">RmqModule</text>
</g>
<!-- RmqModule&#45;&gt;NotificationsModule -->
<g id="edge2" class="edge">
<title>RmqModule&#45;&gt;NotificationsModule</title>
<path fill="none" stroke="black" d="M207.03,-122.11C207.03,-122.11 207.03,-140.99 207.03,-140.99"/>
<polygon fill="black" stroke="black" points="203.53,-140.99 207.03,-150.99 210.53,-140.99 203.53,-140.99"/>
</g>
</g>
</svg>
