<?xml version="1.0" encoding="UTF-8" standalone="no"?>
<!DOCTYPE svg PUBLIC "-//W3C//DTD SVG 1.1//EN"
 "http://www.w3.org/Graphics/SVG/1.1/DTD/svg11.dtd">
<!-- Generated by graphviz version 2.47.0 (20210316.0004)
 -->
<!-- Title: dependencies Pages: 1 -->
<svg width="797pt" height="284pt"
 viewBox="0.00 0.00 797.00 284.00" xmlns="http://www.w3.org/2000/svg" xmlns:xlink="http://www.w3.org/1999/xlink">
<g id="graph0" class="graph" transform="scale(1 1) rotate(0) translate(4 280)">
<title>dependencies</title>
<polygon fill="white" stroke="transparent" points="-4,4 -4,-280 793,-280 793,4 -4,4"/>
<text text-anchor="start" x="373.51" y="-42.4" font-family="Times-12" font-weight="bold" font-size="14.00">Legend</text>
<polygon fill="#ffffb3" stroke="transparent" points="160.5,-10 160.5,-30 180.5,-30 180.5,-10 160.5,-10"/>
<text text-anchor="start" x="184.13" y="-15.4" font-family="Times-12" font-size="14.00"> &#160;Declarations</text>
<polygon fill="#8dd3c7" stroke="transparent" points="273.5,-10 273.5,-30 293.5,-30 293.5,-10 273.5,-10"/>
<text text-anchor="start" x="297.23" y="-15.4" font-family="Times-12" font-size="14.00"> &#160;Module</text>
<polygon fill="#80b1d3" stroke="transparent" points="359.5,-10 359.5,-30 379.5,-30 379.5,-10 359.5,-10"/>
<text text-anchor="start" x="383.28" y="-15.4" font-family="Times-12" font-size="14.00"> &#160;Bootstrap</text>
<polygon fill="#fdb462" stroke="transparent" points="456.5,-10 456.5,-30 476.5,-30 476.5,-10 456.5,-10"/>
<text text-anchor="start" x="480.17" y="-15.4" font-family="Times-12" font-size="14.00"> &#160;Providers</text>
<polygon fill="#fb8072" stroke="transparent" points="552.5,-10 552.5,-30 572.5,-30 572.5,-10 552.5,-10"/>
<text text-anchor="start" x="576.23" y="-15.4" font-family="Times-12" font-size="14.00"> &#160;Exports</text>
<g id="clust1" class="cluster">
<title>cluster_UploadVideoMicroserviceModule</title>
<polygon fill="none" stroke="black" stroke-dasharray="1,5" points="8,-70 8,-268 781,-268 781,-70 8,-70"/>
</g>
<g id="clust3" class="cluster">
<title>cluster_UploadVideoMicroserviceModule_imports</title>
<polygon fill="none" stroke="black" points="554,-78 554,-130 773,-130 773,-78 554,-78"/>
</g>
<g id="clust4" class="cluster">
<title>cluster_UploadVideoMicroserviceModule_exports</title>
<polygon fill="none" stroke="black" points="387,-208 387,-260 613,-260 613,-208 387,-208"/>
</g>
<g id="clust6" class="cluster">
<title>cluster_UploadVideoMicroserviceModule_providers</title>
<polygon fill="none" stroke="black" points="16,-78 16,-130 546,-130 546,-78 16,-78"/>
</g>
<!-- PrismaModule -->
<g id="node1" class="node">
<title>PrismaModule</title>
<polygon fill="#8dd3c7" stroke="black" points="765.43,-122 762.43,-126 741.43,-126 738.43,-122 666.57,-122 666.57,-86 765.43,-86 765.43,-122"/>
<text text-anchor="middle" x="716" y="-99.8" font-family="Times,serif" font-size="14.00">PrismaModule</text>
</g>
<!-- UploadVideoMicroserviceModule -->
<g id="node3" class="node">
<title>UploadVideoMicroserviceModule</title>
<polygon fill="#8dd3c7" stroke="black" points="604.32,-187 601.32,-191 580.32,-191 577.32,-187 395.68,-187 395.68,-151 604.32,-151 604.32,-187"/>
<text text-anchor="middle" x="500" y="-164.8" font-family="Times,serif" font-size="14.00">UploadVideoMicroserviceModule</text>
</g>
<!-- PrismaModule&#45;&gt;UploadVideoMicroserviceModule -->
<g id="edge1" class="edge">
<title>PrismaModule&#45;&gt;UploadVideoMicroserviceModule</title>
<path fill="none" stroke="black" d="M716,-122.11C716,-141.34 716,-169 716,-169 716,-169 614.52,-169 614.52,-169"/>
<polygon fill="black" stroke="black" points="614.52,-165.5 604.52,-169 614.52,-172.5 614.52,-165.5"/>
</g>
<!-- RmqModule -->
<g id="node2" class="node">
<title>RmqModule</title>
<polygon fill="#8dd3c7" stroke="black" points="648.28,-122 645.28,-126 624.28,-126 621.28,-122 561.72,-122 561.72,-86 648.28,-86 648.28,-122"/>
<text text-anchor="middle" x="605" y="-99.8" font-family="Times,serif" font-size="14.00">RmqModule</text>
</g>
<!-- RmqModule&#45;&gt;UploadVideoMicroserviceModule -->
<g id="edge2" class="edge">
<title>RmqModule&#45;&gt;UploadVideoMicroserviceModule</title>
<path fill="none" stroke="black" d="M583.01,-122.11C583.01,-122.11 583.01,-140.99 583.01,-140.99"/>
<polygon fill="black" stroke="black" points="579.51,-140.99 583.01,-150.99 586.51,-140.99 579.51,-140.99"/>
</g>
<!-- UploadVideoMicroserviceService  -->
<g id="node4" class="node">
<title>UploadVideoMicroserviceService </title>
<polygon fill="#fb8072" stroke="black" points="605.25,-252 394.75,-252 394.75,-216 605.25,-216 605.25,-252"/>
<text text-anchor="middle" x="500" y="-229.8" font-family="Times,serif" font-size="14.00">UploadVideoMicroserviceService </text>
</g>
<!-- UploadVideoMicroserviceModule&#45;&gt;UploadVideoMicroserviceService  -->
<g id="edge3" class="edge">
<title>UploadVideoMicroserviceModule&#45;&gt;UploadVideoMicroserviceService </title>
<path fill="none" stroke="black" stroke-dasharray="5,2" d="M500,-187.11C500,-187.11 500,-205.99 500,-205.99"/>
<polygon fill="black" stroke="black" points="496.5,-205.99 500,-215.99 503.5,-205.99 496.5,-205.99"/>
</g>
<!-- UploadVideoMicroserviceService -->
<g id="node5" class="node">
<title>UploadVideoMicroserviceService</title>
<ellipse fill="#fdb462" stroke="black" cx="395" cy="-104" rx="142.92" ry="18"/>
<text text-anchor="middle" x="395" y="-99.8" font-family="Times,serif" font-size="14.00">UploadVideoMicroserviceService</text>
</g>
<!-- UploadVideoMicroserviceService&#45;&gt;UploadVideoMicroserviceModule -->
<g id="edge4" class="edge">
<title>UploadVideoMicroserviceService&#45;&gt;UploadVideoMicroserviceModule</title>
<path fill="none" stroke="black" d="M466.77,-119.73C466.77,-119.73 466.77,-140.65 466.77,-140.65"/>
<polygon fill="black" stroke="black" points="463.27,-140.65 466.77,-150.65 470.27,-140.65 463.27,-140.65"/>
</g>
<!-- UploadVideoRepository -->
<g id="node6" class="node">
<title>UploadVideoRepository</title>
<ellipse fill="#fdb462" stroke="black" cx="129" cy="-104" rx="105.38" ry="18"/>
<text text-anchor="middle" x="129" y="-99.8" font-family="Times,serif" font-size="14.00">UploadVideoRepository</text>
</g>
<!-- UploadVideoRepository&#45;&gt;UploadVideoMicroserviceModule -->
<g id="edge5" class="edge">
<title>UploadVideoRepository&#45;&gt;UploadVideoMicroserviceModule</title>
<path fill="none" stroke="black" d="M129,-122.11C129,-141.34 129,-169 129,-169 129,-169 385.67,-169 385.67,-169"/>
<polygon fill="black" stroke="black" points="385.67,-172.5 395.67,-169 385.67,-165.5 385.67,-172.5"/>
</g>
</g>
</svg>
