<?xml version="1.0" encoding="UTF-8" standalone="no"?>
<!DOCTYPE svg PUBLIC "-//W3C//DTD SVG 1.1//EN"
 "http://www.w3.org/Graphics/SVG/1.1/DTD/svg11.dtd">
<!-- Generated by graphviz version 2.47.0 (20210316.0004)
 -->
<!-- Title: dependencies Pages: 1 -->
<svg width="884pt" height="211pt"
 viewBox="0.00 0.00 884.00 211.00" xmlns="http://www.w3.org/2000/svg" xmlns:xlink="http://www.w3.org/1999/xlink">
<g id="graph0" class="graph" transform="scale(1 1) rotate(0) translate(4 207)">
<title>dependencies</title>
<polygon fill="white" stroke="transparent" points="-4,4 -4,-207 880,-207 880,4 -4,4"/>
<text text-anchor="start" x="417.01" y="-42.4" font-family="Times-12" font-weight="bold" font-size="14.00">Legend</text>
<polygon fill="#ffffb3" stroke="transparent" points="204,-10 204,-30 224,-30 224,-10 204,-10"/>
<text text-anchor="start" x="227.63" y="-15.4" font-family="Times-12" font-size="14.00"> &#160;Declarations</text>
<polygon fill="#8dd3c7" stroke="transparent" points="317,-10 317,-30 337,-30 337,-10 317,-10"/>
<text text-anchor="start" x="340.73" y="-15.4" font-family="Times-12" font-size="14.00"> &#160;Module</text>
<polygon fill="#80b1d3" stroke="transparent" points="403,-10 403,-30 423,-30 423,-10 403,-10"/>
<text text-anchor="start" x="426.78" y="-15.4" font-family="Times-12" font-size="14.00"> &#160;Bootstrap</text>
<polygon fill="#fdb462" stroke="transparent" points="500,-10 500,-30 520,-30 520,-10 500,-10"/>
<text text-anchor="start" x="523.67" y="-15.4" font-family="Times-12" font-size="14.00"> &#160;Providers</text>
<polygon fill="#fb8072" stroke="transparent" points="596,-10 596,-30 616,-30 616,-10 596,-10"/>
<text text-anchor="start" x="619.73" y="-15.4" font-family="Times-12" font-size="14.00"> &#160;Exports</text>
<g id="clust1" class="cluster">
<title>cluster_WorkoutsModule</title>
<polygon fill="none" stroke="black" stroke-dasharray="1,5" points="8,-70 8,-195 868,-195 868,-70 8,-70"/>
</g>
<g id="clust3" class="cluster">
<title>cluster_WorkoutsModule_imports</title>
<polygon fill="none" stroke="black" points="641,-78 641,-130 860,-130 860,-78 641,-78"/>
</g>
<g id="clust6" class="cluster">
<title>cluster_WorkoutsModule_providers</title>
<polygon fill="none" stroke="black" points="16,-78 16,-130 633,-130 633,-78 16,-78"/>
</g>
<!-- PrismaModule -->
<g id="node1" class="node">
<title>PrismaModule</title>
<polygon fill="#8dd3c7" stroke="black" points="852.43,-122 849.43,-126 828.43,-126 825.43,-122 753.57,-122 753.57,-86 852.43,-86 852.43,-122"/>
<text text-anchor="middle" x="803" y="-99.8" font-family="Times,serif" font-size="14.00">PrismaModule</text>
</g>
<!-- WorkoutsModule -->
<g id="node3" class="node">
<title>WorkoutsModule</title>
<polygon fill="#8dd3c7" stroke="black" points="620.26,-187 617.26,-191 596.26,-191 593.26,-187 505.74,-187 505.74,-151 620.26,-151 620.26,-187"/>
<text text-anchor="middle" x="563" y="-164.8" font-family="Times,serif" font-size="14.00">WorkoutsModule</text>
</g>
<!-- PrismaModule&#45;&gt;WorkoutsModule -->
<g id="edge1" class="edge">
<title>PrismaModule&#45;&gt;WorkoutsModule</title>
<path fill="none" stroke="black" d="M803,-122.28C803,-143.32 803,-175 803,-175 803,-175 630.49,-175 630.49,-175"/>
<polygon fill="black" stroke="black" points="630.49,-171.5 620.49,-175 630.49,-178.5 630.49,-171.5"/>
</g>
<!-- RmqModule -->
<g id="node2" class="node">
<title>RmqModule</title>
<polygon fill="#8dd3c7" stroke="black" points="735.28,-122 732.28,-126 711.28,-126 708.28,-122 648.72,-122 648.72,-86 735.28,-86 735.28,-122"/>
<text text-anchor="middle" x="692" y="-99.8" font-family="Times,serif" font-size="14.00">RmqModule</text>
</g>
<!-- RmqModule&#45;&gt;WorkoutsModule -->
<g id="edge2" class="edge">
<title>RmqModule&#45;&gt;WorkoutsModule</title>
<path fill="none" stroke="black" d="M692,-122.02C692,-139.37 692,-163 692,-163 692,-163 630.33,-163 630.33,-163"/>
<polygon fill="black" stroke="black" points="630.33,-159.5 620.33,-163 630.33,-166.5 630.33,-159.5"/>
</g>
<!-- AuditService -->
<g id="node4" class="node">
<title>AuditService</title>
<ellipse fill="#fdb462" stroke="black" cx="563" cy="-104" rx="61.98" ry="18"/>
<text text-anchor="middle" x="563" y="-99.8" font-family="Times,serif" font-size="14.00">AuditService</text>
</g>
<!-- AuditService&#45;&gt;WorkoutsModule -->
<g id="edge3" class="edge">
<title>AuditService&#45;&gt;WorkoutsModule</title>
<path fill="none" stroke="black" d="M563,-122.11C563,-122.11 563,-140.99 563,-140.99"/>
<polygon fill="black" stroke="black" points="559.5,-140.99 563,-150.99 566.5,-140.99 559.5,-140.99"/>
</g>
<!-- WorkoutsMicroserviceService -->
<g id="node5" class="node">
<title>WorkoutsMicroserviceService</title>
<ellipse fill="#fdb462" stroke="black" cx="354" cy="-104" rx="129.03" ry="18"/>
<text text-anchor="middle" x="354" y="-99.8" font-family="Times,serif" font-size="14.00">WorkoutsMicroserviceService</text>
</g>
<!-- WorkoutsMicroserviceService&#45;&gt;WorkoutsModule -->
<g id="edge4" class="edge">
<title>WorkoutsMicroserviceService&#45;&gt;WorkoutsModule</title>
<path fill="none" stroke="black" d="M354,-122.02C354,-139.37 354,-163 354,-163 354,-163 495.61,-163 495.61,-163"/>
<polygon fill="black" stroke="black" points="495.61,-166.5 505.61,-163 495.61,-159.5 495.61,-166.5"/>
</g>
<!-- WorkoutsRepository -->
<g id="node6" class="node">
<title>WorkoutsRepository</title>
<ellipse fill="#fdb462" stroke="black" cx="115" cy="-104" rx="91.5" ry="18"/>
<text text-anchor="middle" x="115" y="-99.8" font-family="Times,serif" font-size="14.00">WorkoutsRepository</text>
</g>
<!-- WorkoutsRepository&#45;&gt;WorkoutsModule -->
<g id="edge5" class="edge">
<title>WorkoutsRepository&#45;&gt;WorkoutsModule</title>
<path fill="none" stroke="black" d="M115,-122.28C115,-143.32 115,-175 115,-175 115,-175 495.35,-175 495.35,-175"/>
<polygon fill="black" stroke="black" points="495.35,-178.5 505.35,-175 495.35,-171.5 495.35,-178.5"/>
</g>
</g>
</svg>
