<?xml version="1.0" encoding="UTF-8" standalone="no"?>
<!DOCTYPE svg PUBLIC "-//W3C//DTD SVG 1.1//EN"
 "http://www.w3.org/Graphics/SVG/1.1/DTD/svg11.dtd">
<!-- Generated by graphviz version 2.47.0 (20210316.0004)
 -->
<!-- Title: dependencies Pages: 1 -->
<svg width="535pt" height="211pt"
 viewBox="0.00 0.00 535.00 211.00" xmlns="http://www.w3.org/2000/svg" xmlns:xlink="http://www.w3.org/1999/xlink">
<g id="graph0" class="graph" transform="scale(1 1) rotate(0) translate(4 207)">
<title>dependencies</title>
<polygon fill="white" stroke="transparent" points="-4,4 -4,-207 531,-207 531,4 -4,4"/>
<text text-anchor="start" x="242.51" y="-42.4" font-family="Times-12" font-weight="bold" font-size="14.00">Legend</text>
<polygon fill="#ffffb3" stroke="transparent" points="29.5,-10 29.5,-30 49.5,-30 49.5,-10 29.5,-10"/>
<text text-anchor="start" x="53.13" y="-15.4" font-family="Times-12" font-size="14.00"> &#160;Declarations</text>
<polygon fill="#8dd3c7" stroke="transparent" points="142.5,-10 142.5,-30 162.5,-30 162.5,-10 142.5,-10"/>
<text text-anchor="start" x="166.23" y="-15.4" font-family="Times-12" font-size="14.00"> &#160;Module</text>
<polygon fill="#80b1d3" stroke="transparent" points="228.5,-10 228.5,-30 248.5,-30 248.5,-10 228.5,-10"/>
<text text-anchor="start" x="252.28" y="-15.4" font-family="Times-12" font-size="14.00"> &#160;Bootstrap</text>
<polygon fill="#fdb462" stroke="transparent" points="325.5,-10 325.5,-30 345.5,-30 345.5,-10 325.5,-10"/>
<text text-anchor="start" x="349.17" y="-15.4" font-family="Times-12" font-size="14.00"> &#160;Providers</text>
<polygon fill="#fb8072" stroke="transparent" points="421.5,-10 421.5,-30 441.5,-30 441.5,-10 421.5,-10"/>
<text text-anchor="start" x="445.23" y="-15.4" font-family="Times-12" font-size="14.00"> &#160;Exports</text>
<g id="clust1" class="cluster">
<title>cluster_WorkoutsGatewayModule</title>
<polygon fill="none" stroke="black" stroke-dasharray="1,5" points="8,-70 8,-195 519,-195 519,-70 8,-70"/>
</g>
<g id="clust3" class="cluster">
<title>cluster_WorkoutsGatewayModule_imports</title>
<polygon fill="none" stroke="black" points="264,-78 264,-130 511,-130 511,-78 264,-78"/>
</g>
<g id="clust6" class="cluster">
<title>cluster_WorkoutsGatewayModule_providers</title>
<polygon fill="none" stroke="black" points="16,-78 16,-130 256,-130 256,-78 16,-78"/>
</g>
<!-- LocalCacheModule -->
<g id="node1" class="node">
<title>LocalCacheModule</title>
<polygon fill="#8dd3c7" stroke="black" points="503.4,-122 500.4,-126 479.4,-126 476.4,-122 376.6,-122 376.6,-86 503.4,-86 503.4,-122"/>
<text text-anchor="middle" x="440" y="-99.8" font-family="Times,serif" font-size="14.00">LocalCacheModule</text>
</g>
<!-- WorkoutsGatewayModule -->
<g id="node3" class="node">
<title>WorkoutsGatewayModule</title>
<polygon fill="#8dd3c7" stroke="black" points="397.01,-187 394.01,-191 373.01,-191 370.01,-187 232.99,-187 232.99,-151 397.01,-151 397.01,-187"/>
<text text-anchor="middle" x="315" y="-164.8" font-family="Times,serif" font-size="14.00">WorkoutsGatewayModule</text>
</g>
<!-- LocalCacheModule&#45;&gt;WorkoutsGatewayModule -->
<g id="edge1" class="edge">
<title>LocalCacheModule&#45;&gt;WorkoutsGatewayModule</title>
<path fill="none" stroke="black" d="M387.03,-122.11C387.03,-122.11 387.03,-140.99 387.03,-140.99"/>
<polygon fill="black" stroke="black" points="383.53,-140.99 387.03,-150.99 390.53,-140.99 383.53,-140.99"/>
</g>
<!-- RmqModule -->
<g id="node2" class="node">
<title>RmqModule</title>
<polygon fill="#8dd3c7" stroke="black" points="358.28,-122 355.28,-126 334.28,-126 331.28,-122 271.72,-122 271.72,-86 358.28,-86 358.28,-122"/>
<text text-anchor="middle" x="315" y="-99.8" font-family="Times,serif" font-size="14.00">RmqModule</text>
</g>
<!-- RmqModule&#45;&gt;WorkoutsGatewayModule -->
<g id="edge2" class="edge">
<title>RmqModule&#45;&gt;WorkoutsGatewayModule</title>
<path fill="none" stroke="black" d="M315,-122.11C315,-122.11 315,-140.99 315,-140.99"/>
<polygon fill="black" stroke="black" points="311.5,-140.99 315,-150.99 318.5,-140.99 311.5,-140.99"/>
</g>
<!-- WorkoutsGatewayService -->
<g id="node4" class="node">
<title>WorkoutsGatewayService</title>
<ellipse fill="#fdb462" stroke="black" cx="136" cy="-104" rx="112.28" ry="18"/>
<text text-anchor="middle" x="136" y="-99.8" font-family="Times,serif" font-size="14.00">WorkoutsGatewayService</text>
</g>
<!-- WorkoutsGatewayService&#45;&gt;WorkoutsGatewayModule -->
<g id="edge3" class="edge">
<title>WorkoutsGatewayService&#45;&gt;WorkoutsGatewayModule</title>
<path fill="none" stroke="black" d="M240.57,-110.96C240.57,-110.96 240.57,-140.81 240.57,-140.81"/>
<polygon fill="black" stroke="black" points="237.07,-140.81 240.57,-150.81 244.07,-140.81 237.07,-140.81"/>
</g>
</g>
</svg>
