<?xml version="1.0" encoding="UTF-8" standalone="no"?>
<!DOCTYPE svg PUBLIC "-//W3C//DTD SVG 1.1//EN"
 "http://www.w3.org/Graphics/SVG/1.1/DTD/svg11.dtd">
<!-- Generated by graphviz version 2.47.0 (20210316.0004)
 -->
<!-- Title: dependencies Pages: 1 -->
<svg width="504pt" height="211pt"
 viewBox="0.00 0.00 504.00 211.00" xmlns="http://www.w3.org/2000/svg" xmlns:xlink="http://www.w3.org/1999/xlink">
<g id="graph0" class="graph" transform="scale(1 1) rotate(0) translate(4 207)">
<title>dependencies</title>
<polygon fill="white" stroke="transparent" points="-4,4 -4,-207 500,-207 500,4 -4,4"/>
<text text-anchor="start" x="227.01" y="-42.4" font-family="Times-12" font-weight="bold" font-size="14.00">Legend</text>
<polygon fill="#ffffb3" stroke="transparent" points="14,-10 14,-30 34,-30 34,-10 14,-10"/>
<text text-anchor="start" x="37.63" y="-15.4" font-family="Times-12" font-size="14.00"> &#160;Declarations</text>
<polygon fill="#8dd3c7" stroke="transparent" points="127,-10 127,-30 147,-30 147,-10 127,-10"/>
<text text-anchor="start" x="150.73" y="-15.4" font-family="Times-12" font-size="14.00"> &#160;Module</text>
<polygon fill="#80b1d3" stroke="transparent" points="213,-10 213,-30 233,-30 233,-10 213,-10"/>
<text text-anchor="start" x="236.78" y="-15.4" font-family="Times-12" font-size="14.00"> &#160;Bootstrap</text>
<polygon fill="#fdb462" stroke="transparent" points="310,-10 310,-30 330,-30 330,-10 310,-10"/>
<text text-anchor="start" x="333.67" y="-15.4" font-family="Times-12" font-size="14.00"> &#160;Providers</text>
<polygon fill="#fb8072" stroke="transparent" points="406,-10 406,-30 426,-30 426,-10 406,-10"/>
<text text-anchor="start" x="429.73" y="-15.4" font-family="Times-12" font-size="14.00"> &#160;Exports</text>
<g id="clust1" class="cluster">
<title>cluster_AppleHealthGatewayModule</title>
<polygon fill="none" stroke="black" stroke-dasharray="1,5" points="53,-70 53,-195 443,-195 443,-70 53,-70"/>
</g>
<g id="clust6" class="cluster">
<title>cluster_AppleHealthGatewayModule_providers</title>
<polygon fill="none" stroke="black" points="171,-78 171,-130 435,-130 435,-78 171,-78"/>
</g>
<g id="clust3" class="cluster">
<title>cluster_AppleHealthGatewayModule_imports</title>
<polygon fill="none" stroke="black" points="61,-78 61,-130 163,-130 163,-78 61,-78"/>
</g>
<!-- RmqModule -->
<g id="node1" class="node">
<title>RmqModule</title>
<polygon fill="#8dd3c7" stroke="black" points="155.28,-122 152.28,-126 131.28,-126 128.28,-122 68.72,-122 68.72,-86 155.28,-86 155.28,-122"/>
<text text-anchor="middle" x="112" y="-99.8" font-family="Times,serif" font-size="14.00">RmqModule</text>
</g>
<!-- AppleHealthGatewayModule -->
<g id="node2" class="node">
<title>AppleHealthGatewayModule</title>
<polygon fill="#8dd3c7" stroke="black" points="317.33,-187 314.33,-191 293.33,-191 290.33,-187 136.67,-187 136.67,-151 317.33,-151 317.33,-187"/>
<text text-anchor="middle" x="227" y="-164.8" font-family="Times,serif" font-size="14.00">AppleHealthGatewayModule</text>
</g>
<!-- RmqModule&#45;&gt;AppleHealthGatewayModule -->
<g id="edge1" class="edge">
<title>RmqModule&#45;&gt;AppleHealthGatewayModule</title>
<path fill="none" stroke="black" d="M145.99,-122.11C145.99,-122.11 145.99,-140.99 145.99,-140.99"/>
<polygon fill="black" stroke="black" points="142.49,-140.99 145.99,-150.99 149.49,-140.99 142.49,-140.99"/>
</g>
<!-- AppleHealthGatewayService -->
<g id="node3" class="node">
<title>AppleHealthGatewayService</title>
<ellipse fill="#fdb462" stroke="black" cx="303" cy="-104" rx="123.79" ry="18"/>
<text text-anchor="middle" x="303" y="-99.8" font-family="Times,serif" font-size="14.00">AppleHealthGatewayService</text>
</g>
<!-- AppleHealthGatewayService&#45;&gt;AppleHealthGatewayModule -->
<g id="edge2" class="edge">
<title>AppleHealthGatewayService&#45;&gt;AppleHealthGatewayModule</title>
<path fill="none" stroke="black" d="M248.38,-120.4C248.38,-120.4 248.38,-140.54 248.38,-140.54"/>
<polygon fill="black" stroke="black" points="244.88,-140.54 248.38,-150.54 251.88,-140.54 244.88,-140.54"/>
</g>
</g>
</svg>
