<?xml version="1.0" encoding="UTF-8" standalone="no"?>
<!DOCTYPE svg PUBLIC "-//W3C//DTD SVG 1.1//EN"
 "http://www.w3.org/Graphics/SVG/1.1/DTD/svg11.dtd">
<!-- Generated by graphviz version 2.47.0 (20210316.0004)
 -->
<!-- Title: dependencies Pages: 1 -->
<svg width="865pt" height="211pt"
 viewBox="0.00 0.00 865.00 211.00" xmlns="http://www.w3.org/2000/svg" xmlns:xlink="http://www.w3.org/1999/xlink">
<g id="graph0" class="graph" transform="scale(1 1) rotate(0) translate(4 207)">
<title>dependencies</title>
<polygon fill="white" stroke="transparent" points="-4,4 -4,-207 861,-207 861,4 -4,4"/>
<text text-anchor="start" x="407.51" y="-42.4" font-family="Times-12" font-weight="bold" font-size="14.00">Legend</text>
<polygon fill="#ffffb3" stroke="transparent" points="194.5,-10 194.5,-30 214.5,-30 214.5,-10 194.5,-10"/>
<text text-anchor="start" x="218.13" y="-15.4" font-family="Times-12" font-size="14.00"> &#160;Declarations</text>
<polygon fill="#8dd3c7" stroke="transparent" points="307.5,-10 307.5,-30 327.5,-30 327.5,-10 307.5,-10"/>
<text text-anchor="start" x="331.23" y="-15.4" font-family="Times-12" font-size="14.00"> &#160;Module</text>
<polygon fill="#80b1d3" stroke="transparent" points="393.5,-10 393.5,-30 413.5,-30 413.5,-10 393.5,-10"/>
<text text-anchor="start" x="417.28" y="-15.4" font-family="Times-12" font-size="14.00"> &#160;Bootstrap</text>
<polygon fill="#fdb462" stroke="transparent" points="490.5,-10 490.5,-30 510.5,-30 510.5,-10 490.5,-10"/>
<text text-anchor="start" x="514.17" y="-15.4" font-family="Times-12" font-size="14.00"> &#160;Providers</text>
<polygon fill="#fb8072" stroke="transparent" points="586.5,-10 586.5,-30 606.5,-30 606.5,-10 586.5,-10"/>
<text text-anchor="start" x="610.23" y="-15.4" font-family="Times-12" font-size="14.00"> &#160;Exports</text>
<g id="clust1" class="cluster">
<title>cluster_ExerciseMicroserviceModule</title>
<polygon fill="none" stroke="black" stroke-dasharray="1,5" points="8,-70 8,-195 849,-195 849,-70 8,-70"/>
</g>
<g id="clust3" class="cluster">
<title>cluster_ExerciseMicroserviceModule_imports</title>
<polygon fill="none" stroke="black" points="622,-78 622,-130 841,-130 841,-78 622,-78"/>
</g>
<g id="clust6" class="cluster">
<title>cluster_ExerciseMicroserviceModule_providers</title>
<polygon fill="none" stroke="black" points="16,-78 16,-130 614,-130 614,-78 16,-78"/>
</g>
<!-- PrismaModule -->
<g id="node1" class="node">
<title>PrismaModule</title>
<polygon fill="#8dd3c7" stroke="black" points="833.43,-122 830.43,-126 809.43,-126 806.43,-122 734.57,-122 734.57,-86 833.43,-86 833.43,-122"/>
<text text-anchor="middle" x="784" y="-99.8" font-family="Times,serif" font-size="14.00">PrismaModule</text>
</g>
<!-- ExerciseMicroserviceModule -->
<g id="node3" class="node">
<title>ExerciseMicroserviceModule</title>
<polygon fill="#8dd3c7" stroke="black" points="634.59,-187 631.59,-191 610.59,-191 607.59,-187 453.41,-187 453.41,-151 634.59,-151 634.59,-187"/>
<text text-anchor="middle" x="544" y="-164.8" font-family="Times,serif" font-size="14.00">ExerciseMicroserviceModule</text>
</g>
<!-- PrismaModule&#45;&gt;ExerciseMicroserviceModule -->
<g id="edge1" class="edge">
<title>PrismaModule&#45;&gt;ExerciseMicroserviceModule</title>
<path fill="none" stroke="black" d="M784,-122.11C784,-141.34 784,-169 784,-169 784,-169 644.73,-169 644.73,-169"/>
<polygon fill="black" stroke="black" points="644.73,-165.5 634.73,-169 644.73,-172.5 644.73,-165.5"/>
</g>
<!-- RmqModule -->
<g id="node2" class="node">
<title>RmqModule</title>
<polygon fill="#8dd3c7" stroke="black" points="716.28,-122 713.28,-126 692.28,-126 689.28,-122 629.72,-122 629.72,-86 716.28,-86 716.28,-122"/>
<text text-anchor="middle" x="673" y="-99.8" font-family="Times,serif" font-size="14.00">RmqModule</text>
</g>
<!-- RmqModule&#45;&gt;ExerciseMicroserviceModule -->
<g id="edge2" class="edge">
<title>RmqModule&#45;&gt;ExerciseMicroserviceModule</title>
<path fill="none" stroke="black" d="M629.51,-104C622.66,-104 617.8,-104 617.8,-104 617.8,-104 617.8,-140.89 617.8,-140.89"/>
<polygon fill="black" stroke="black" points="614.3,-140.89 617.8,-150.89 621.3,-140.89 614.3,-140.89"/>
</g>
<!-- AuditService -->
<g id="node4" class="node">
<title>AuditService</title>
<ellipse fill="#fdb462" stroke="black" cx="544" cy="-104" rx="61.98" ry="18"/>
<text text-anchor="middle" x="544" y="-99.8" font-family="Times,serif" font-size="14.00">AuditService</text>
</g>
<!-- AuditService&#45;&gt;ExerciseMicroserviceModule -->
<g id="edge3" class="edge">
<title>AuditService&#45;&gt;ExerciseMicroserviceModule</title>
<path fill="none" stroke="black" d="M544,-122.11C544,-122.11 544,-140.99 544,-140.99"/>
<polygon fill="black" stroke="black" points="540.5,-140.99 544,-150.99 547.5,-140.99 540.5,-140.99"/>
</g>
<!-- ExerciseMicroserviceService -->
<g id="node5" class="node">
<title>ExerciseMicroserviceService</title>
<ellipse fill="#fdb462" stroke="black" cx="340" cy="-104" rx="124.35" ry="18"/>
<text text-anchor="middle" x="340" y="-99.8" font-family="Times,serif" font-size="14.00">ExerciseMicroserviceService</text>
</g>
<!-- ExerciseMicroserviceService&#45;&gt;ExerciseMicroserviceModule -->
<g id="edge4" class="edge">
<title>ExerciseMicroserviceService&#45;&gt;ExerciseMicroserviceModule</title>
<path fill="none" stroke="black" d="M458.69,-109.54C458.69,-109.54 458.69,-140.75 458.69,-140.75"/>
<polygon fill="black" stroke="black" points="455.19,-140.75 458.69,-150.75 462.19,-140.75 455.19,-140.75"/>
</g>
<!-- ExerciseRepository -->
<g id="node6" class="node">
<title>ExerciseRepository</title>
<ellipse fill="#fdb462" stroke="black" cx="111" cy="-104" rx="86.81" ry="18"/>
<text text-anchor="middle" x="111" y="-99.8" font-family="Times,serif" font-size="14.00">ExerciseRepository</text>
</g>
<!-- ExerciseRepository&#45;&gt;ExerciseMicroserviceModule -->
<g id="edge5" class="edge">
<title>ExerciseRepository&#45;&gt;ExerciseMicroserviceModule</title>
<path fill="none" stroke="black" d="M111,-122.11C111,-141.34 111,-169 111,-169 111,-169 443.23,-169 443.23,-169"/>
<polygon fill="black" stroke="black" points="443.23,-172.5 453.23,-169 443.23,-165.5 443.23,-172.5"/>
</g>
</g>
</svg>
