<?xml version="1.0" encoding="UTF-8" standalone="no"?>
<!DOCTYPE svg PUBLIC "-//W3C//DTD SVG 1.1//EN"
 "http://www.w3.org/Graphics/SVG/1.1/DTD/svg11.dtd">
<!-- Generated by graphviz version 2.47.0 (20210316.0004)
 -->
<!-- Title: dependencies Pages: 1 -->
<svg width="1408pt" height="284pt"
 viewBox="0.00 0.00 1408.00 284.00" xmlns="http://www.w3.org/2000/svg" xmlns:xlink="http://www.w3.org/1999/xlink">
<g id="graph0" class="graph" transform="scale(1 1) rotate(0) translate(4 280)">
<title>dependencies</title>
<polygon fill="white" stroke="transparent" points="-4,4 -4,-280 1404,-280 1404,4 -4,4"/>
<text text-anchor="start" x="679.01" y="-42.4" font-family="Times-12" font-weight="bold" font-size="14.00">Legend</text>
<polygon fill="#ffffb3" stroke="transparent" points="466,-10 466,-30 486,-30 486,-10 466,-10"/>
<text text-anchor="start" x="489.63" y="-15.4" font-family="Times-12" font-size="14.00"> &#160;Declarations</text>
<polygon fill="#8dd3c7" stroke="transparent" points="579,-10 579,-30 599,-30 599,-10 579,-10"/>
<text text-anchor="start" x="602.73" y="-15.4" font-family="Times-12" font-size="14.00"> &#160;Module</text>
<polygon fill="#80b1d3" stroke="transparent" points="665,-10 665,-30 685,-30 685,-10 665,-10"/>
<text text-anchor="start" x="688.78" y="-15.4" font-family="Times-12" font-size="14.00"> &#160;Bootstrap</text>
<polygon fill="#fdb462" stroke="transparent" points="762,-10 762,-30 782,-30 782,-10 762,-10"/>
<text text-anchor="start" x="785.67" y="-15.4" font-family="Times-12" font-size="14.00"> &#160;Providers</text>
<polygon fill="#fb8072" stroke="transparent" points="858,-10 858,-30 878,-30 878,-10 858,-10"/>
<text text-anchor="start" x="881.73" y="-15.4" font-family="Times-12" font-size="14.00"> &#160;Exports</text>
<g id="clust1" class="cluster">
<title>cluster_AuthGatewayModule</title>
<polygon fill="none" stroke="black" stroke-dasharray="1,5" points="8,-70 8,-268 1392,-268 1392,-70 8,-70"/>
</g>
<g id="clust3" class="cluster">
<title>cluster_AuthGatewayModule_imports</title>
<polygon fill="none" stroke="black" points="715,-78 715,-130 1384,-130 1384,-78 715,-78"/>
</g>
<g id="clust6" class="cluster">
<title>cluster_AuthGatewayModule_providers</title>
<polygon fill="none" stroke="black" points="16,-78 16,-130 707,-130 707,-78 16,-78"/>
</g>
<g id="clust4" class="cluster">
<title>cluster_AuthGatewayModule_exports</title>
<polygon fill="none" stroke="black" points="744,-208 744,-260 850,-260 850,-208 744,-208"/>
</g>
<!-- AuthMicroserviceModule -->
<g id="node1" class="node">
<title>AuthMicroserviceModule</title>
<polygon fill="#8dd3c7" stroke="black" points="1375.9,-122 1372.9,-126 1351.9,-126 1348.9,-122 1214.1,-122 1214.1,-86 1375.9,-86 1375.9,-122"/>
<text text-anchor="middle" x="1295" y="-99.8" font-family="Times,serif" font-size="14.00">AuthMicroserviceModule</text>
</g>
<!-- AuthGatewayModule -->
<g id="node6" class="node">
<title>AuthGatewayModule</title>
<polygon fill="#8dd3c7" stroke="black" points="865.79,-187 862.79,-191 841.79,-191 838.79,-187 728.21,-187 728.21,-151 865.79,-151 865.79,-187"/>
<text text-anchor="middle" x="797" y="-164.8" font-family="Times,serif" font-size="14.00">AuthGatewayModule</text>
</g>
<!-- AuthMicroserviceModule&#45;&gt;AuthGatewayModule -->
<g id="edge1" class="edge">
<title>AuthMicroserviceModule&#45;&gt;AuthGatewayModule</title>
<path fill="none" stroke="black" d="M1295,-122.01C1295,-144.49 1295,-180 1295,-180 1295,-180 875.72,-180 875.72,-180"/>
<polygon fill="black" stroke="black" points="875.72,-176.5 865.72,-180 875.72,-183.5 875.72,-176.5"/>
</g>
<!-- MailModule -->
<g id="node2" class="node">
<title>MailModule</title>
<polygon fill="#8dd3c7" stroke="black" points="1195.99,-122 1192.99,-126 1171.99,-126 1168.99,-122 1110.01,-122 1110.01,-86 1195.99,-86 1195.99,-122"/>
<text text-anchor="middle" x="1153" y="-99.8" font-family="Times,serif" font-size="14.00">MailModule</text>
</g>
<!-- MailModule&#45;&gt;AuthGatewayModule -->
<g id="edge2" class="edge">
<title>MailModule&#45;&gt;AuthGatewayModule</title>
<path fill="none" stroke="black" d="M1153,-122.13C1153,-142.57 1153,-173 1153,-173 1153,-173 876.06,-173 876.06,-173"/>
<polygon fill="black" stroke="black" points="876.06,-169.5 866.06,-173 876.06,-176.5 876.06,-169.5"/>
</g>
<!-- PrismaModule -->
<g id="node3" class="node">
<title>PrismaModule</title>
<polygon fill="#8dd3c7" stroke="black" points="1092.43,-122 1089.43,-126 1068.43,-126 1065.43,-122 993.57,-122 993.57,-86 1092.43,-86 1092.43,-122"/>
<text text-anchor="middle" x="1043" y="-99.8" font-family="Times,serif" font-size="14.00">PrismaModule</text>
</g>
<!-- PrismaModule&#45;&gt;AuthGatewayModule -->
<g id="edge3" class="edge">
<title>PrismaModule&#45;&gt;AuthGatewayModule</title>
<path fill="none" stroke="black" d="M1043,-122.27C1043,-140.56 1043,-166 1043,-166 1043,-166 875.85,-166 875.85,-166"/>
<polygon fill="black" stroke="black" points="875.85,-162.5 865.85,-166 875.85,-169.5 875.85,-162.5"/>
</g>
<!-- RmqModule -->
<g id="node4" class="node">
<title>RmqModule</title>
<polygon fill="#8dd3c7" stroke="black" points="975.28,-122 972.28,-126 951.28,-126 948.28,-122 888.72,-122 888.72,-86 975.28,-86 975.28,-122"/>
<text text-anchor="middle" x="932" y="-99.8" font-family="Times,serif" font-size="14.00">RmqModule</text>
</g>
<!-- RmqModule&#45;&gt;AuthGatewayModule -->
<g id="edge4" class="edge">
<title>RmqModule&#45;&gt;AuthGatewayModule</title>
<path fill="none" stroke="black" d="M932,-122.01C932,-138.05 932,-159 932,-159 932,-159 875.69,-159 875.69,-159"/>
<polygon fill="black" stroke="black" points="875.69,-155.5 865.69,-159 875.69,-162.5 875.69,-155.5"/>
</g>
<!-- WinstonLoggerModule -->
<g id="node5" class="node">
<title>WinstonLoggerModule</title>
<polygon fill="#8dd3c7" stroke="black" points="870.92,-122 867.92,-126 846.92,-126 843.92,-122 723.08,-122 723.08,-86 870.92,-86 870.92,-122"/>
<text text-anchor="middle" x="797" y="-99.8" font-family="Times,serif" font-size="14.00">WinstonLoggerModule</text>
</g>
<!-- WinstonLoggerModule&#45;&gt;AuthGatewayModule -->
<g id="edge5" class="edge">
<title>WinstonLoggerModule&#45;&gt;AuthGatewayModule</title>
<path fill="none" stroke="black" d="M797,-122.11C797,-122.11 797,-140.99 797,-140.99"/>
<polygon fill="black" stroke="black" points="793.5,-140.99 797,-150.99 800.5,-140.99 793.5,-140.99"/>
</g>
<!-- RmqModule  -->
<g id="node7" class="node">
<title>RmqModule </title>
<polygon fill="#fb8072" stroke="black" points="842.28,-252 751.72,-252 751.72,-216 842.28,-216 842.28,-252"/>
<text text-anchor="middle" x="797" y="-229.8" font-family="Times,serif" font-size="14.00">RmqModule </text>
</g>
<!-- AuthGatewayModule&#45;&gt;RmqModule  -->
<g id="edge6" class="edge">
<title>AuthGatewayModule&#45;&gt;RmqModule </title>
<path fill="none" stroke="black" stroke-dasharray="5,2" d="M797,-187.11C797,-187.11 797,-205.99 797,-205.99"/>
<polygon fill="black" stroke="black" points="793.5,-205.99 797,-215.99 800.5,-205.99 793.5,-205.99"/>
</g>
<!-- AuditService -->
<g id="node8" class="node">
<title>AuditService</title>
<ellipse fill="#fdb462" stroke="black" cx="637" cy="-104" rx="61.98" ry="18"/>
<text text-anchor="middle" x="637" y="-99.8" font-family="Times,serif" font-size="14.00">AuditService</text>
</g>
<!-- AuditService&#45;&gt;AuthGatewayModule -->
<g id="edge7" class="edge">
<title>AuditService&#45;&gt;AuthGatewayModule</title>
<path fill="none" stroke="black" d="M637,-122.01C637,-138.05 637,-159 637,-159 637,-159 718.22,-159 718.22,-159"/>
<polygon fill="black" stroke="black" points="718.22,-162.5 728.22,-159 718.22,-155.5 718.22,-162.5"/>
</g>
<!-- AuthGatewayService -->
<g id="node9" class="node">
<title>AuthGatewayService</title>
<ellipse fill="#fdb462" stroke="black" cx="463" cy="-104" rx="93.74" ry="18"/>
<text text-anchor="middle" x="463" y="-99.8" font-family="Times,serif" font-size="14.00">AuthGatewayService</text>
</g>
<!-- AuthGatewayService&#45;&gt;AuthGatewayModule -->
<g id="edge8" class="edge">
<title>AuthGatewayService&#45;&gt;AuthGatewayModule</title>
<path fill="none" stroke="black" d="M463,-122.27C463,-140.56 463,-166 463,-166 463,-166 718.2,-166 718.2,-166"/>
<polygon fill="black" stroke="black" points="718.2,-169.5 728.2,-166 718.2,-162.5 718.2,-169.5"/>
</g>
<!-- AuthRepository -->
<g id="node10" class="node">
<title>AuthRepository</title>
<ellipse fill="#fdb462" stroke="black" cx="279" cy="-104" rx="72.95" ry="18"/>
<text text-anchor="middle" x="279" y="-99.8" font-family="Times,serif" font-size="14.00">AuthRepository</text>
</g>
<!-- AuthRepository&#45;&gt;AuthGatewayModule -->
<g id="edge9" class="edge">
<title>AuthRepository&#45;&gt;AuthGatewayModule</title>
<path fill="none" stroke="black" d="M279,-122.13C279,-142.57 279,-173 279,-173 279,-173 718.21,-173 718.21,-173"/>
<polygon fill="black" stroke="black" points="718.21,-176.5 728.21,-173 718.21,-169.5 718.21,-176.5"/>
</g>
<!-- JwtTokensService -->
<g id="node11" class="node">
<title>JwtTokensService</title>
<ellipse fill="#fdb462" stroke="black" cx="106" cy="-104" rx="81.66" ry="18"/>
<text text-anchor="middle" x="106" y="-99.8" font-family="Times,serif" font-size="14.00">JwtTokensService</text>
</g>
<!-- JwtTokensService&#45;&gt;AuthGatewayModule -->
<g id="edge10" class="edge">
<title>JwtTokensService&#45;&gt;AuthGatewayModule</title>
<path fill="none" stroke="black" d="M106,-122.01C106,-144.49 106,-180 106,-180 106,-180 718.22,-180 718.22,-180"/>
<polygon fill="black" stroke="black" points="718.22,-183.5 728.22,-180 718.22,-176.5 718.22,-183.5"/>
</g>
</g>
</svg>
