<?xml version="1.0" encoding="UTF-8" standalone="no"?>
<!DOCTYPE svg PUBLIC "-//W3C//DTD SVG 1.1//EN"
 "http://www.w3.org/Graphics/SVG/1.1/DTD/svg11.dtd">
<!-- Generated by graphviz version 2.47.0 (20210316.0004)
 -->
<!-- Title: dependencies Pages: 1 -->
<svg width="652pt" height="211pt"
 viewBox="0.00 0.00 652.00 211.00" xmlns="http://www.w3.org/2000/svg" xmlns:xlink="http://www.w3.org/1999/xlink">
<g id="graph0" class="graph" transform="scale(1 1) rotate(0) translate(4 207)">
<title>dependencies</title>
<polygon fill="white" stroke="transparent" points="-4,4 -4,-207 648,-207 648,4 -4,4"/>
<text text-anchor="start" x="301.01" y="-42.4" font-family="Times-12" font-weight="bold" font-size="14.00">Legend</text>
<polygon fill="#ffffb3" stroke="transparent" points="88,-10 88,-30 108,-30 108,-10 88,-10"/>
<text text-anchor="start" x="111.63" y="-15.4" font-family="Times-12" font-size="14.00"> &#160;Declarations</text>
<polygon fill="#8dd3c7" stroke="transparent" points="201,-10 201,-30 221,-30 221,-10 201,-10"/>
<text text-anchor="start" x="224.73" y="-15.4" font-family="Times-12" font-size="14.00"> &#160;Module</text>
<polygon fill="#80b1d3" stroke="transparent" points="287,-10 287,-30 307,-30 307,-10 287,-10"/>
<text text-anchor="start" x="310.78" y="-15.4" font-family="Times-12" font-size="14.00"> &#160;Bootstrap</text>
<polygon fill="#fdb462" stroke="transparent" points="384,-10 384,-30 404,-30 404,-10 384,-10"/>
<text text-anchor="start" x="407.67" y="-15.4" font-family="Times-12" font-size="14.00"> &#160;Providers</text>
<polygon fill="#fb8072" stroke="transparent" points="480,-10 480,-30 500,-30 500,-10 480,-10"/>
<text text-anchor="start" x="503.73" y="-15.4" font-family="Times-12" font-size="14.00"> &#160;Exports</text>
<g id="clust1" class="cluster">
<title>cluster_WorkoutsMicroserviceModule</title>
<polygon fill="none" stroke="black" stroke-dasharray="1,5" points="8,-70 8,-195 636,-195 636,-70 8,-70"/>
</g>
<g id="clust3" class="cluster">
<title>cluster_WorkoutsMicroserviceModule_imports</title>
<polygon fill="none" stroke="black" points="16,-78 16,-130 628,-130 628,-78 16,-78"/>
</g>
<!-- ExerciseMicroserviceModule -->
<g id="node1" class="node">
<title>ExerciseMicroserviceModule</title>
<polygon fill="#8dd3c7" stroke="black" points="619.59,-122 616.59,-126 595.59,-126 592.59,-122 438.41,-122 438.41,-86 619.59,-86 619.59,-122"/>
<text text-anchor="middle" x="529" y="-99.8" font-family="Times,serif" font-size="14.00">ExerciseMicroserviceModule</text>
</g>
<!-- WorkoutsMicroserviceModule -->
<g id="node5" class="node">
<title>WorkoutsMicroserviceModule</title>
<polygon fill="#8dd3c7" stroke="black" points="394.11,-187 391.11,-191 370.11,-191 367.11,-187 205.89,-187 205.89,-151 394.11,-151 394.11,-187"/>
<text text-anchor="middle" x="300" y="-164.8" font-family="Times,serif" font-size="14.00">WorkoutsMicroserviceModule</text>
</g>
<!-- ExerciseMicroserviceModule&#45;&gt;WorkoutsMicroserviceModule -->
<g id="edge1" class="edge">
<title>ExerciseMicroserviceModule&#45;&gt;WorkoutsMicroserviceModule</title>
<path fill="none" stroke="black" d="M529,-122.11C529,-141.34 529,-169 529,-169 529,-169 404.13,-169 404.13,-169"/>
<polygon fill="black" stroke="black" points="404.13,-165.5 394.13,-169 404.13,-172.5 404.13,-165.5"/>
</g>
<!-- PrismaModule -->
<g id="node2" class="node">
<title>PrismaModule</title>
<polygon fill="#8dd3c7" stroke="black" points="420.43,-122 417.43,-126 396.43,-126 393.43,-122 321.57,-122 321.57,-86 420.43,-86 420.43,-122"/>
<text text-anchor="middle" x="371" y="-99.8" font-family="Times,serif" font-size="14.00">PrismaModule</text>
</g>
<!-- PrismaModule&#45;&gt;WorkoutsMicroserviceModule -->
<g id="edge2" class="edge">
<title>PrismaModule&#45;&gt;WorkoutsMicroserviceModule</title>
<path fill="none" stroke="black" d="M358.04,-122.11C358.04,-122.11 358.04,-140.99 358.04,-140.99"/>
<polygon fill="black" stroke="black" points="354.54,-140.99 358.04,-150.99 361.54,-140.99 354.54,-140.99"/>
</g>
<!-- WinstonLoggerModule -->
<g id="node3" class="node">
<title>WinstonLoggerModule</title>
<polygon fill="#8dd3c7" stroke="black" points="303.92,-122 300.92,-126 279.92,-126 276.92,-122 156.08,-122 156.08,-86 303.92,-86 303.92,-122"/>
<text text-anchor="middle" x="230" y="-99.8" font-family="Times,serif" font-size="14.00">WinstonLoggerModule</text>
</g>
<!-- WinstonLoggerModule&#45;&gt;WorkoutsMicroserviceModule -->
<g id="edge3" class="edge">
<title>WinstonLoggerModule&#45;&gt;WorkoutsMicroserviceModule</title>
<path fill="none" stroke="black" d="M254.7,-122.11C254.7,-122.11 254.7,-140.99 254.7,-140.99"/>
<polygon fill="black" stroke="black" points="251.2,-140.99 254.7,-150.99 258.2,-140.99 251.2,-140.99"/>
</g>
<!-- WorkoutsModule -->
<g id="node4" class="node">
<title>WorkoutsModule</title>
<polygon fill="#8dd3c7" stroke="black" points="138.26,-122 135.26,-126 114.26,-126 111.26,-122 23.74,-122 23.74,-86 138.26,-86 138.26,-122"/>
<text text-anchor="middle" x="81" y="-99.8" font-family="Times,serif" font-size="14.00">WorkoutsModule</text>
</g>
<!-- WorkoutsModule&#45;&gt;WorkoutsMicroserviceModule -->
<g id="edge4" class="edge">
<title>WorkoutsModule&#45;&gt;WorkoutsMicroserviceModule</title>
<path fill="none" stroke="black" d="M81,-122.11C81,-141.34 81,-169 81,-169 81,-169 195.85,-169 195.85,-169"/>
<polygon fill="black" stroke="black" points="195.85,-172.5 205.85,-169 195.85,-165.5 195.85,-172.5"/>
</g>
</g>
</svg>
